<?xml version='1.0' encoding='utf-8'?>
<svg xmlns="http://www.w3.org/2000/svg" width="91.44mm" height="91.44mm" version="1.1" style="shape-rendering:geometricPrecision; text-rendering:geometricPrecision; image-rendering:optimizeQuality; fill-rule:evenodd; clip-rule:evenodd" viewBox="0 0 9144 9144"> <defs> <style type="text/css">  .fil0 {fill:#F0F0F0} .fil1 {fill:#011627;fill-rule:nonzero}  </style> </defs> <g id="Layer_x0020_1"> <metadata id="CorelCorpID_0Corel-Layer"/> <g id="_2744621448064"> <polygon class="fil0" points="0,0 9144,0 9144,9144 0,9144 "/> <path class="fil1" d="M5274 3284l819 0 0 -314 -819 0 0 314zm343 2363l134 0 252 -353 -639 0 253 353zm162 -2171l0 1627 314 0 0 -1627 -314 0zm-191 1627l0 -1627 -314 0 0 1627 314 0zm-2431 -1769c-53,0 -95,-43 -95,-95 0,-53 42,-96 95,-96l1926 0 0 -268c0,-53 42,-96 95,-96l1011 0c53,0 95,43 95,96l0 2324c0,23 -8,44 -22,61l-496 695c-17,28 -47,46 -82,46l-2527 0c-53,0 -95,-43 -95,-96 0,-52 42,-95 95,-95l2341 0 -324 -452 -2017 0c-53,0 -95,-43 -95,-96 0,-53 42,-96 95,-96l1926 0 0 -544 -1926 0c-53,0 -95,-43 -95,-96 0,-53 42,-96 95,-96l1926 0 0 -452 -1926 0c-53,0 -95,-43 -95,-96 0,-53 42,-96 95,-96l1926 0 0 -452 -1926 0zm-606 -879l4042 0c53,0 96,43 96,96l0 4042c0,53 -43,96 -96,96l-4042 0c-53,0 -96,-43 -96,-96l0 -4042c0,-53 43,-96 96,-96zm3946 192l-3850 0 0 3850 3850 0 0 -3850z"/> </g> </g> </svg>