<svg width="2400" height="1600" xmlns="http://www.w3.org/2000/svg" xmlns:xlink="http://www.w3.org/1999/xlink" overflow="hidden"><defs><clipPath id="clip0"><rect x="0" y="0" width="2400" height="1600"/></clipPath></defs><g clip-path="url(#clip0)"><rect x="0" y="0" width="2400" height="1600" fill="#FFFFFF"/><path d="M539.5 144.5 1781.24 144.5" stroke="#4472C4" stroke-width="3" stroke-miterlimit="8" fill="none" fill-rule="evenodd"/><path d="M539.5 192.5 1781.24 192.5" stroke="#4472C4" stroke-width="3" stroke-miterlimit="8" fill="none" fill-rule="evenodd"/><path d="M541.5 237.5 1783.24 237.5" stroke="#4472C4" stroke-width="3" stroke-miterlimit="8" fill="none" fill-rule="evenodd"/><path d="M541.5 285.5 1783.24 285.5" stroke="#4472C4" stroke-width="3" stroke-miterlimit="8" fill="none" fill-rule="evenodd"/><path d="M541.5 332.5 1783.24 332.5" stroke="#4472C4" stroke-width="3" stroke-miterlimit="8" fill="none" fill-rule="evenodd"/><path d="M541.5 380.5 1783.24 380.5" stroke="#4472C4" stroke-width="3" stroke-miterlimit="8" fill="none" fill-rule="evenodd"/><path d="M541.5 425.5 1783.24 425.5" stroke="#4472C4" stroke-width="3" stroke-miterlimit="8" fill="none" fill-rule="evenodd"/><path d="M541.5 473.5 1783.24 473.5" stroke="#4472C4" stroke-width="3" stroke-miterlimit="8" fill="none" fill-rule="evenodd"/><path d="M541.5 520.5 1783.24 520.5" stroke="#4472C4" stroke-width="3" stroke-miterlimit="8" fill="none" fill-rule="evenodd"/><path d="M541.5 566.5 1783.24 566.5" stroke="#4472C4" stroke-width="3" stroke-miterlimit="8" fill="none" fill-rule="evenodd"/><path d="M541.5 614.5 1783.24 614.5" stroke="#4472C4" stroke-width="3" stroke-miterlimit="8" fill="none" fill-rule="evenodd"/><path d="M541.5 659.5 1783.24 659.5" stroke="#4472C4" stroke-width="3" stroke-miterlimit="8" fill="none" fill-rule="evenodd"/><path d="M541.5 704.5 1783.24 704.5" stroke="#4472C4" stroke-width="3" stroke-miterlimit="8" fill="none" fill-rule="evenodd"/><path d="M541.5 749.5 1783.24 749.5" stroke="#4472C4" stroke-width="3" stroke-miterlimit="8" fill="none" fill-rule="evenodd"/><path d="M541.5 795.5 1783.24 795.5" stroke="#4472C4" stroke-width="3" stroke-miterlimit="8" fill="none" fill-rule="evenodd"/><path d="M541.5 840.5 1783.24 840.5" stroke="#4472C4" stroke-width="3" stroke-miterlimit="8" fill="none" fill-rule="evenodd"/><path d="M541.5 885.5 1783.24 885.5" stroke="#4472C4" stroke-width="3" stroke-miterlimit="8" fill="none" fill-rule="evenodd"/><path d="M541.5 930.5 1783.24 930.5" stroke="#4472C4" stroke-width="3" stroke-miterlimit="8" fill="none" fill-rule="evenodd"/><path d="M541.5 977.5 1783.24 977.5" stroke="#4472C4" stroke-width="3" stroke-miterlimit="8" fill="none" fill-rule="evenodd"/><path d="M541.5 1022.5 1783.24 1022.5" stroke="#4472C4" stroke-width="3" stroke-miterlimit="8" fill="none" fill-rule="evenodd"/><path d="M541.5 1068.5 1783.24 1068.5" stroke="#4472C4" stroke-width="3" stroke-miterlimit="8" fill="none" fill-rule="evenodd"/><path d="M541.5 1113.5 1783.24 1113.5" stroke="#4472C4" stroke-width="3" stroke-miterlimit="8" fill="none" fill-rule="evenodd"/><path d="M541.5 1159.5 1783.24 1159.5" stroke="#4472C4" stroke-width="3" stroke-miterlimit="8" fill="none" fill-rule="evenodd"/><path d="M541.5 1204.5 1783.24 1204.5" stroke="#4472C4" stroke-width="3" stroke-miterlimit="8" fill="none" fill-rule="evenodd"/><path d="M541.5 1250.5 1783.24 1250.5" stroke="#4472C4" stroke-width="3" stroke-miterlimit="8" fill="none" fill-rule="evenodd"/><path d="M541.5 1295.5 1783.24 1295.5" stroke="#4472C4" stroke-width="3" stroke-miterlimit="8" fill="none" fill-rule="evenodd"/><path d="M541.5 1340.5 1783.24 1340.5" stroke="#4472C4" stroke-width="3" stroke-miterlimit="8" fill="none" fill-rule="evenodd"/><path d="M541.5 1386.5 1783.24 1386.5" stroke="#4472C4" stroke-width="3" stroke-miterlimit="8" fill="none" fill-rule="evenodd"/><path d="M541.5 1430.5 1783.24 1430.5" stroke="#4472C4" stroke-width="3" stroke-miterlimit="8" fill="none" fill-rule="evenodd"/><path d="M541.5 1475.5 1783.24 1475.5" stroke="#4472C4" stroke-width="3" stroke-miterlimit="8" fill="none" fill-rule="evenodd"/><path d="M541.5 1522.5 1783.24 1522.5" stroke="#4472C4" stroke-width="3" stroke-miterlimit="8" fill="none" fill-rule="evenodd"/><path d="M541.5 1568.5 1783.24 1568.5" stroke="#4472C4" stroke-width="3" stroke-miterlimit="8" fill="none" fill-rule="evenodd"/><path d="M676.5 0.500053 676.5 1600.5" stroke="#FF0000" stroke-width="3" stroke-miterlimit="8" fill="none" fill-rule="evenodd"/><path d="M0 0 12.8955 1385.67" stroke="#000000" stroke-width="4" stroke-miterlimit="8" fill="none" fill-rule="evenodd" transform="matrix(-1 0 0 1 801.896 0)"/><path d="M0 0 1241.74 0.000104987" stroke="#000000" stroke-width="4" stroke-miterlimit="8" fill="none" fill-rule="evenodd" transform="matrix(-1 0 0 1 1780.74 1386)"/><text font-family="Calibri,Calibri_MSFontService,sans-serif" font-weight="400" font-size="64" transform="translate(1812.11 456)">Note making</text><text font-family="Calibri,Calibri_MSFontService,sans-serif" font-weight="400" font-size="64" transform="translate(1812.11 533)">section</text><text font-family="Calibri,Calibri_MSFontService,sans-serif" font-weight="400" font-size="64" transform="translate(1791.86 1498)">Summary section</text><text font-family="Calibri,Calibri_MSFontService,sans-serif" font-weight="400" font-size="64" transform="translate(299.458 456)">Question</text><text font-family="Calibri,Calibri_MSFontService,sans-serif" font-weight="400" font-size="64" transform="translate(299.458 533)">making</text><text font-family="Calibri,Calibri_MSFontService,sans-serif" font-weight="400" font-size="64" transform="translate(299.458 610)">section</text><path d="M556 726 574 726 574 732 556 732ZM580 726 598 726 598 732 580 732ZM604 726 622 726 622 732 604 732ZM628 726 646 726 646 732 628 732ZM652 726 670 726 670 732 652 732ZM676 726 694 726 694 732 676 732ZM700 726 718 726 718 732 700 732ZM724 726 742 726 742 732 724 732ZM748 726 766 726 766 732 748 732ZM772 726 782.135 726 782.135 732 772 732ZM559 738 541 729 559 720ZM779.135 720 797.135 729 779.135 738Z"/><rect x="594" y="745" width="149" height="55" fill="#FFFFFF"/><text font-family="Calibri,Calibri_MSFontService,sans-serif" font-weight="700" font-size="37" transform="translate(603.853 785)">3 inches</text><path d="M1056 1401 1056 1419 1050 1419 1050 1401ZM1056 1425 1056 1443 1050 1443 1050 1425ZM1056 1449 1056 1467 1050 1467 1050 1449ZM1056 1473 1056 1491 1050 1491 1050 1473ZM1056 1497 1056 1515 1050 1515 1050 1497ZM1056 1521 1056 1539 1050 1539 1050 1521ZM1056 1545 1056 1563 1050 1563 1050 1545ZM1056 1569 1056 1585.45 1050 1585.45 1050 1569ZM1044 1404 1053 1386 1062 1404ZM1062 1582.45 1053 1600.45 1044 1582.45Z"/><rect x="1072" y="1449" width="256" height="55" fill="#FFFFFF"/><text font-family="Calibri,Calibri_MSFontService,sans-serif" font-weight="700" font-size="37" transform="translate(1081.53 1489)">5 lines</text></g></svg>