<svg xmlns="http://www.w3.org/2000/svg" xmlns:xlink="http://www.w3.org/1999/xlink" width="500" zoomAndPan="magnify" viewBox="0 0 375 374.999991" height="500" preserveAspectRatio="xMidYMid meet" version="1.0"><defs><clipPath id="dc51d5d4d5"><path d="M 2.136719 2.34375 L 368 2.34375 L 368 368.34375 L 2.136719 368.34375 Z M 2.136719 2.34375 " clip-rule="nonzero"/></clipPath></defs><g clip-path="url(#dc51d5d4d5)"><path fill="#03dac5" d="M 367.308594 47.320312 C 366.515625 44.78125 364.378906 42.898438 361.761719 42.425781 L 333.199219 37.277344 L 328.050781 8.714844 C 327.582031 6.101562 325.695312 3.964844 323.160156 3.167969 C 320.625 2.375 317.859375 3.054688 315.980469 4.933594 L 280.597656 40.316406 C 251.136719 20.601562 216.90625 10.207031 181.203125 10.207031 C 133.375 10.207031 88.40625 28.832031 54.582031 62.652344 C 20.761719 96.476562 2.136719 141.445312 2.136719 189.273438 C 2.136719 237.105469 20.761719 282.074219 54.582031 315.894531 C 88.40625 349.71875 133.371094 368.34375 181.203125 368.34375 C 229.035156 368.34375 274.003906 349.71875 307.824219 315.894531 C 341.644531 282.074219 360.273438 237.105469 360.273438 189.273438 C 360.273438 153.578125 349.878906 119.347656 330.160156 89.882812 L 365.542969 54.5 C 367.421875 52.621094 368.101562 49.855469 367.308594 47.320312 Z M 176.15625 194.324219 C 177.550781 195.71875 179.378906 196.414062 181.203125 196.414062 C 183.03125 196.414062 184.859375 195.71875 186.25 194.324219 L 224.988281 155.585938 C 232.1875 164.921875 236.484375 176.601562 236.484375 189.273438 C 236.484375 219.757812 211.6875 244.558594 181.203125 244.558594 C 150.722656 244.558594 125.921875 219.757812 125.921875 189.273438 C 125.921875 158.792969 150.722656 133.992188 181.203125 133.992188 C 193.878906 133.992188 205.558594 138.289062 214.894531 145.488281 L 176.15625 184.226562 C 173.367188 187.015625 173.367188 191.535156 176.15625 194.324219 Z M 225.058594 135.324219 C 213.082031 125.574219 197.816406 119.714844 181.203125 119.714844 C 142.847656 119.714844 111.644531 150.921875 111.644531 189.273438 C 111.644531 227.628906 142.847656 258.835938 181.203125 258.835938 C 219.558594 258.835938 250.761719 227.628906 250.761719 189.273438 C 250.761719 172.664062 244.90625 157.394531 235.15625 145.421875 L 264.011719 116.5625 C 281.089844 135.988281 291.460938 161.441406 291.460938 189.273438 C 291.460938 250.070312 242 299.53125 181.203125 299.53125 C 120.40625 299.53125 70.949219 250.070312 70.949219 189.273438 C 70.949219 128.480469 120.410156 79.019531 181.203125 79.019531 C 209.039062 79.019531 234.492188 89.390625 253.914062 106.46875 Z M 345.996094 189.273438 C 345.996094 280.140625 272.070312 354.066406 181.203125 354.066406 C 90.339844 354.066406 16.414062 280.140625 16.414062 189.273438 C 16.414062 98.410156 90.339844 24.484375 181.203125 24.484375 C 213.105469 24.484375 243.722656 33.5 270.285156 50.625 L 267.453125 53.460938 C 265.800781 55.113281 265.0625 57.472656 265.476562 59.773438 L 270.839844 89.542969 L 264.023438 96.359375 C 242 76.707031 212.976562 64.742188 181.203125 64.742188 C 112.535156 64.742188 56.671875 120.609375 56.671875 189.277344 C 56.671875 257.945312 112.535156 313.808594 181.203125 313.808594 C 249.875 313.808594 305.738281 257.945312 305.738281 189.277344 C 305.738281 157.503906 293.773438 128.480469 274.121094 106.457031 L 280.9375 99.640625 L 310.707031 105.003906 C 311.128906 105.082031 311.550781 105.117188 311.972656 105.117188 C 313.847656 105.117188 315.667969 104.378906 317.019531 103.027344 L 319.851562 100.195312 C 336.976562 126.757812 345.996094 157.378906 345.996094 189.273438 Z M 309.5625 90.289062 L 284.675781 85.804688 L 280.1875 60.917969 L 316.421875 24.683594 L 320.027344 44.691406 C 320.558594 47.625 322.855469 49.921875 325.789062 50.449219 L 345.796875 54.054688 Z M 309.5625 90.289062 " fill-opacity="1" fill-rule="nonzero"/></g></svg>