<svg xmlns="http://www.w3.org/2000/svg" xmlns:xlink="http://www.w3.org/1999/xlink" width="500" zoomAndPan="magnify" viewBox="0 0 375 374.999991" height="500" preserveAspectRatio="xMidYMid meet" version="1.0"><defs><clipPath id="67d5831be3"><path d="M 16 24 L 368.976562 24 L 368.976562 305 L 16 305 Z M 16 24 " clip-rule="nonzero"/></clipPath><clipPath id="d71702abef"><path d="M 16 345 L 47 345 L 47 369.355469 L 16 369.355469 Z M 16 345 " clip-rule="nonzero"/></clipPath></defs><g clip-path="url(#67d5831be3)"><path fill="#bb86fc" d="M 324.152344 119.917969 C 326.550781 110.296875 333.851562 70.914062 299.214844 51.554688 C 264.265625 32.019531 224.191406 56.148438 214.699219 62.496094 C 209.25 53.207031 185.824219 17.8125 148.726562 24.972656 C 110.917969 32.261719 100.003906 76.023438 97.855469 86.867188 C 86.824219 84.320312 40.628906 75.695312 22.777344 105.175781 C 5.25 134.101562 30.273438 161.40625 37.039062 167.972656 C 31.027344 175.304688 9.125 205.660156 28.785156 237.265625 C 48.476562 268.949219 88.859375 257.511719 99.160156 253.945312 C 101.601562 263.335938 113.082031 295.410156 156.835938 303.375 C 161.804688 304.285156 166.457031 304.691406 170.824219 304.691406 C 205.132812 304.691406 221.167969 279.410156 225.480469 271.167969 C 233.679688 277.175781 263.410156 296.054688 296.65625 281.808594 C 330.949219 267.097656 326.078125 233.875 324.121094 225.128906 C 333.226562 222.140625 369 208.078125 368.191406 172.054688 C 367.378906 136.269531 333.152344 122.828125 324.152344 119.917969 Z M 324.152344 119.917969 " fill-opacity="1" fill-rule="nonzero"/></g><path fill="#bb86fc" d="M 83.070312 300.355469 C 71.890625 300.859375 63.496094 305.925781 60.617188 313.9375 C 58.308594 320.339844 60.300781 327.410156 65.816406 332.398438 C 71.683594 337.707031 80.191406 340.761719 88.914062 340.761719 C 89.625 340.761719 90.335938 340.738281 91.046875 340.695312 C 99.761719 340.191406 107.425781 336.65625 112.625 330.726562 C 116.773438 325.996094 117.671875 320.492188 115.140625 315.230469 C 110.761719 306.132812 96.96875 299.742188 83.070312 300.355469 Z M 83.070312 300.355469 " fill-opacity="1" fill-rule="nonzero"/><g clip-path="url(#d71702abef)"><path fill="#bb86fc" d="M 29.113281 345.367188 C 23.070312 346.023438 18.726562 348.824219 17.191406 353.050781 C 15.835938 356.769531 16.917969 360.960938 20.082031 364.234375 C 23.148438 367.40625 27.601562 369.246094 32.167969 369.246094 C 32.484375 369.246094 32.8125 369.234375 33.128906 369.214844 C 37.78125 368.949219 41.855469 366.816406 44.613281 363.207031 C 47.175781 359.855469 47.503906 355.90625 45.523438 352.382812 C 42.71875 347.4375 36.121094 344.601562 29.113281 345.367188 Z M 29.113281 345.367188 " fill-opacity="1" fill-rule="nonzero"/></g></svg>