<svg xmlns="http://www.w3.org/2000/svg" xmlns:xlink="http://www.w3.org/1999/xlink" width="300" zoomAndPan="magnify" viewBox="0 0 224.87999 37.5" height="50" preserveAspectRatio="xMidYMid meet" version="1.0"><defs><g/></defs><g fill="#bb86fc" fill-opacity="1"><g transform="translate(2.443721, 25.904605)"><g><path d="M 6.402344 -4.425781 C 4.074219 -4.425781 2.445312 -5.9375 2.445312 -5.9375 L 0.234375 -2.445312 C 0.234375 -2.445312 2.328125 0.347656 7.449219 0.347656 C 11.527344 0.347656 14.085938 -2.210938 14.085938 -4.890625 C 14.085938 -10.011719 7.800781 -10.011719 7.800781 -11.175781 C 7.800781 -11.527344 8.148438 -11.875 8.730469 -11.875 C 10.363281 -11.875 11.757812 -10.59375 11.757812 -10.59375 L 13.972656 -14.085938 C 13.972656 -14.085938 11.875 -16.648438 7.683594 -16.648438 C 3.609375 -16.648438 1.046875 -14.085938 1.046875 -11.410156 C 1.046875 -6.285156 7.335938 -6.285156 7.335938 -5.121094 C 7.335938 -4.773438 6.984375 -4.425781 6.402344 -4.425781 Z M 6.402344 -4.425781 "/></g></g></g><g fill="#bb86fc" fill-opacity="1"><g transform="translate(16.993378, 25.904605)"><g><path d="M 2.09375 -7.683594 L 2.09375 -5.703125 C 2.09375 -1.628906 4.191406 0.464844 7.683594 0.464844 C 8.847656 0.464844 9.78125 0.234375 9.78125 0.234375 L 9.78125 -4.425781 C 9.78125 -4.425781 9.3125 -4.308594 8.847656 -4.308594 C 8.148438 -4.308594 7.683594 -4.773438 7.683594 -5.703125 L 7.683594 -7.683594 L 9.78125 -7.683594 L 9.78125 -12.339844 L 7.683594 -12.339844 L 7.683594 -16.300781 L 2.09375 -16.300781 L 2.09375 -12.339844 L 0.464844 -12.339844 L 0.464844 -7.683594 Z M 2.09375 -7.683594 "/></g></g></g><g fill="#bb86fc" fill-opacity="1"><g transform="translate(27.934723, 25.904605)"><g><path d="M 5.355469 0.347656 C 7.449219 0.347656 8.382812 -1.398438 8.382812 -1.398438 L 8.847656 0 L 14.203125 0 L 14.203125 -12.339844 L 8.617188 -12.339844 L 8.617188 -5.820312 C 8.617188 -4.890625 8.148438 -4.425781 7.683594 -4.425781 C 7.21875 -4.425781 6.753906 -4.890625 6.753906 -5.820312 L 6.753906 -12.339844 L 1.164062 -12.339844 L 1.164062 -5.820312 C 1.164062 -1.511719 3.027344 0.347656 5.355469 0.347656 Z M 5.355469 0.347656 "/></g></g></g><g fill="#bb86fc" fill-opacity="1"><g transform="translate(43.299161, 25.904605)"><g><path d="M 0.699219 -6.171875 C 0.699219 -1.980469 3.027344 0.347656 5.589844 0.347656 C 7.917969 0.347656 8.847656 -1.398438 8.847656 -1.398438 C 8.847656 -1.398438 8.847656 -1.398438 9.3125 0 L 14.4375 0 L 14.4375 -17.230469 L 8.847656 -17.230469 L 8.847656 -10.945312 C 8.847656 -10.945312 7.917969 -12.691406 5.589844 -12.691406 C 3.027344 -12.691406 0.699219 -10.363281 0.699219 -6.171875 Z M 6.519531 -6.171875 C 6.519531 -7.335938 7.101562 -7.917969 7.800781 -7.917969 C 8.5 -7.917969 9.082031 -7.335938 9.082031 -6.171875 C 9.082031 -5.007812 8.5 -4.425781 7.800781 -4.425781 C 7.101562 -4.425781 6.519531 -5.007812 6.519531 -6.171875 Z M 6.519531 -6.171875 "/></g></g></g><g fill="#bb86fc" fill-opacity="1"><g transform="translate(58.896392, 25.904605)"><g><path d="M 3.726562 0.929688 C 3.515625 1.511719 3.027344 1.980469 2.445312 1.980469 C 1.980469 1.980469 1.628906 1.746094 1.628906 1.746094 L 0.347656 5.820312 C 0.347656 5.820312 1.746094 6.753906 3.375 6.753906 C 6.285156 6.753906 7.917969 5.121094 9.3125 0.929688 L 13.738281 -12.339844 L 7.917969 -12.339844 L 6.867188 -5.820312 L 5.820312 -12.339844 L 0 -12.339844 L 4.074219 0 Z M 3.726562 0.929688 "/></g></g></g><g fill="#bb86fc" fill-opacity="1"><g transform="translate(72.631267, 25.904605)"><g/></g></g><g fill="#bb86fc" fill-opacity="1"><g transform="translate(77.287164, 25.904605)"><g><path d="M 6.402344 -4.425781 C 4.074219 -4.425781 2.445312 -5.9375 2.445312 -5.9375 L 0.234375 -2.445312 C 0.234375 -2.445312 2.328125 0.347656 7.449219 0.347656 C 11.527344 0.347656 14.085938 -2.210938 14.085938 -4.890625 C 14.085938 -10.011719 7.800781 -10.011719 7.800781 -11.175781 C 7.800781 -11.527344 8.148438 -11.875 8.730469 -11.875 C 10.363281 -11.875 11.757812 -10.59375 11.757812 -10.59375 L 13.972656 -14.085938 C 13.972656 -14.085938 11.875 -16.648438 7.683594 -16.648438 C 3.609375 -16.648438 1.046875 -14.085938 1.046875 -11.410156 C 1.046875 -6.285156 7.335938 -6.285156 7.335938 -5.121094 C 7.335938 -4.773438 6.984375 -4.425781 6.402344 -4.425781 Z M 6.402344 -4.425781 "/></g></g></g><g fill="#bb86fc" fill-opacity="1"><g transform="translate(91.83682, 25.904605)"><g><path d="M 7.21875 -12.691406 C 3.609375 -12.691406 0.699219 -9.78125 0.699219 -6.171875 C 0.699219 -2.5625 3.609375 0.347656 7.566406 0.347656 C 10.710938 0.347656 12.457031 -1.511719 12.457031 -1.511719 L 10.476562 -4.65625 C 10.476562 -4.65625 9.546875 -3.726562 8.382812 -3.726562 C 6.519531 -3.726562 6.285156 -5.007812 6.285156 -5.007812 L 13.738281 -5.007812 C 13.738281 -5.097656 13.738281 -6.078125 13.738281 -6.171875 C 13.738281 -9.78125 10.828125 -12.691406 7.21875 -12.691406 Z M 6.171875 -7.21875 C 6.171875 -8.148438 6.636719 -8.617188 7.21875 -8.617188 C 7.800781 -8.617188 8.265625 -8.148438 8.265625 -7.21875 Z M 6.171875 -7.21875 "/></g></g></g><g fill="#bb86fc" fill-opacity="1"><g transform="translate(106.037293, 25.904605)"><g><path d="M 11.527344 -3.726562 C 11.527344 -7.449219 6.984375 -7.683594 6.984375 -8.382812 C 6.984375 -8.617188 7.21875 -8.847656 7.566406 -8.847656 C 8.847656 -8.847656 9.78125 -7.917969 9.78125 -7.917969 L 11.527344 -10.710938 C 11.527344 -10.710938 9.546875 -12.691406 6.402344 -12.691406 C 2.792969 -12.691406 0.929688 -10.828125 0.929688 -8.617188 C 0.929688 -4.890625 5.472656 -4.65625 5.472656 -3.957031 C 5.472656 -3.726562 5.238281 -3.492188 4.890625 -3.492188 C 3.144531 -3.492188 1.980469 -4.65625 1.980469 -4.65625 L 0.234375 -1.863281 C 0.234375 -1.863281 2.210938 0.347656 6.054688 0.347656 C 9.664062 0.347656 11.527344 -1.511719 11.527344 -3.726562 Z M 11.527344 -3.726562 "/></g></g></g><g fill="#bb86fc" fill-opacity="1"><g transform="translate(118.026213, 25.904605)"><g><path d="M 11.527344 -3.726562 C 11.527344 -7.449219 6.984375 -7.683594 6.984375 -8.382812 C 6.984375 -8.617188 7.21875 -8.847656 7.566406 -8.847656 C 8.847656 -8.847656 9.78125 -7.917969 9.78125 -7.917969 L 11.527344 -10.710938 C 11.527344 -10.710938 9.546875 -12.691406 6.402344 -12.691406 C 2.792969 -12.691406 0.929688 -10.828125 0.929688 -8.617188 C 0.929688 -4.890625 5.472656 -4.65625 5.472656 -3.957031 C 5.472656 -3.726562 5.238281 -3.492188 4.890625 -3.492188 C 3.144531 -3.492188 1.980469 -4.65625 1.980469 -4.65625 L 0.234375 -1.863281 C 0.234375 -1.863281 2.210938 0.347656 6.054688 0.347656 C 9.664062 0.347656 11.527344 -1.511719 11.527344 -3.726562 Z M 11.527344 -3.726562 "/></g></g></g><g fill="#bb86fc" fill-opacity="1"><g transform="translate(130.015134, 25.904605)"><g><path d="M 1.164062 -12.339844 L 1.164062 0 L 6.753906 0 L 6.753906 -12.339844 Z M 1.164062 -13.738281 L 6.753906 -13.738281 L 6.753906 -18.160156 L 1.164062 -18.160156 Z M 1.164062 -13.738281 "/></g></g></g><g fill="#bb86fc" fill-opacity="1"><g transform="translate(137.930146, 25.904605)"><g><path d="M 0.699219 -6.171875 C 0.699219 -2.5625 3.609375 0.347656 7.800781 0.347656 C 11.992188 0.347656 14.902344 -2.5625 14.902344 -6.171875 C 14.902344 -9.78125 11.992188 -12.691406 7.800781 -12.691406 C 3.609375 -12.691406 0.699219 -9.78125 0.699219 -6.171875 Z M 9.3125 -6.171875 C 9.3125 -5.121094 8.617188 -4.425781 7.800781 -4.425781 C 6.984375 -4.425781 6.285156 -5.121094 6.285156 -6.171875 C 6.285156 -7.21875 6.984375 -7.917969 7.800781 -7.917969 C 8.617188 -7.917969 9.3125 -7.21875 9.3125 -6.171875 Z M 9.3125 -6.171875 "/></g></g></g><g fill="#bb86fc" fill-opacity="1"><g transform="translate(153.527377, 25.904605)"><g><path d="M 10.011719 -12.691406 C 7.917969 -12.691406 6.984375 -10.945312 6.984375 -10.945312 L 6.519531 -12.339844 L 1.164062 -12.339844 L 1.164062 0 L 6.753906 0 L 6.753906 -6.519531 C 6.753906 -7.449219 7.21875 -7.917969 7.683594 -7.917969 C 8.148438 -7.917969 8.617188 -7.449219 8.617188 -6.519531 L 8.617188 0 L 14.203125 0 L 14.203125 -6.519531 C 14.203125 -10.828125 12.339844 -12.691406 10.011719 -12.691406 Z M 10.011719 -12.691406 "/></g></g></g><g fill="#bb86fc" fill-opacity="1"><g transform="translate(168.659022, 25.904605)"><g/></g></g><g fill="#bb86fc" fill-opacity="1"><g transform="translate(173.314918, 25.904605)"><g><path d="M 12.921875 -16.300781 L 5.007812 -16.300781 L 0.234375 0 L 6.984375 0 L 7.449219 -2.328125 L 10.476562 -2.328125 L 10.945312 0 L 17.695312 0 C 17.695312 0 12.945312 -16.207031 12.921875 -16.300781 Z M 8.148438 -6.054688 L 8.964844 -10.246094 L 9.78125 -6.054688 Z M 8.148438 -6.054688 "/></g></g></g><g fill="#bb86fc" fill-opacity="1"><g transform="translate(191.240104, 25.904605)"><g><path d="M 14.902344 -6.171875 C 14.902344 -10.363281 12.574219 -12.691406 10.011719 -12.691406 C 7.683594 -12.691406 6.753906 -10.945312 6.753906 -10.945312 C 6.753906 -10.945312 6.753906 -10.945312 6.285156 -12.339844 L 1.164062 -12.339844 L 1.164062 5.820312 L 6.753906 5.820312 L 6.753906 -1.398438 C 6.753906 -1.398438 7.683594 0.347656 10.011719 0.347656 C 12.574219 0.347656 14.902344 -1.980469 14.902344 -6.171875 Z M 9.082031 -6.171875 C 9.082031 -5.007812 8.5 -4.425781 7.800781 -4.425781 C 7.101562 -4.425781 6.519531 -5.007812 6.519531 -6.171875 C 6.519531 -7.335938 7.101562 -7.917969 7.800781 -7.917969 C 8.5 -7.917969 9.082031 -7.335938 9.082031 -6.171875 Z M 9.082031 -6.171875 "/></g></g></g><g fill="#bb86fc" fill-opacity="1"><g transform="translate(206.837346, 25.904605)"><g><path d="M 14.902344 -6.171875 C 14.902344 -10.363281 12.574219 -12.691406 10.011719 -12.691406 C 7.683594 -12.691406 6.753906 -10.945312 6.753906 -10.945312 C 6.753906 -10.945312 6.753906 -10.945312 6.285156 -12.339844 L 1.164062 -12.339844 L 1.164062 5.820312 L 6.753906 5.820312 L 6.753906 -1.398438 C 6.753906 -1.398438 7.683594 0.347656 10.011719 0.347656 C 12.574219 0.347656 14.902344 -1.980469 14.902344 -6.171875 Z M 9.082031 -6.171875 C 9.082031 -5.007812 8.5 -4.425781 7.800781 -4.425781 C 7.101562 -4.425781 6.519531 -5.007812 6.519531 -6.171875 C 6.519531 -7.335938 7.101562 -7.917969 7.800781 -7.917969 C 8.5 -7.917969 9.082031 -7.335938 9.082031 -6.171875 Z M 9.082031 -6.171875 "/></g></g></g></svg>