<svg xmlns="http://www.w3.org/2000/svg" xmlns:xlink="http://www.w3.org/1999/xlink" width="300" zoomAndPan="magnify" viewBox="0 0 224.87999 37.5" height="50" preserveAspectRatio="xMidYMid meet" version="1.0"><defs><g/></defs><g fill="#bb86fc" fill-opacity="1"><g transform="translate(2.507326, 25.805923)"><g><path d="M 4.25 -4.875 C 4.425781 -3.613281 5.070312 -2.984375 6.1875 -2.984375 C 6.71875 -2.984375 7.160156 -3.164062 7.515625 -3.53125 C 7.878906 -3.894531 8.0625 -4.351562 8.0625 -4.90625 C 8.0625 -5.320312 7.953125 -5.664062 7.734375 -5.9375 C 7.523438 -6.21875 7.1875 -6.460938 6.71875 -6.671875 L 8.296875 -9.78125 C 10.460938 -8.789062 11.546875 -7.1875 11.546875 -4.96875 C 11.546875 -4.207031 11.40625 -3.5 11.125 -2.84375 C 10.851562 -2.195312 10.472656 -1.628906 9.984375 -1.140625 C 9.503906 -0.648438 8.9375 -0.265625 8.28125 0.015625 C 7.625 0.296875 6.914062 0.4375 6.15625 0.4375 C 5.21875 0.4375 4.34375 0.210938 3.53125 -0.234375 C 2.71875 -0.691406 2.066406 -1.328125 1.578125 -2.140625 C 1.335938 -2.535156 1.15625 -2.941406 1.03125 -3.359375 C 0.90625 -3.785156 0.828125 -4.289062 0.796875 -4.875 Z M 4.796875 -7.296875 C 4.234375 -7.460938 3.78125 -7.632812 3.4375 -7.8125 C 3.101562 -7.988281 2.78125 -8.222656 2.46875 -8.515625 C 2.050781 -8.929688 1.722656 -9.425781 1.484375 -10 C 1.253906 -10.582031 1.140625 -11.203125 1.140625 -11.859375 C 1.140625 -12.546875 1.257812 -13.175781 1.5 -13.75 C 1.75 -14.320312 2.085938 -14.820312 2.515625 -15.25 C 2.953125 -15.675781 3.460938 -16.007812 4.046875 -16.25 C 4.628906 -16.5 5.257812 -16.625 5.9375 -16.625 C 6.632812 -16.625 7.269531 -16.507812 7.84375 -16.28125 C 8.425781 -16.050781 8.929688 -15.726562 9.359375 -15.3125 C 9.785156 -14.894531 10.125 -14.390625 10.375 -13.796875 C 10.625 -13.203125 10.765625 -12.539062 10.796875 -11.8125 L 7.1875 -11.8125 C 7.070312 -12.738281 6.648438 -13.203125 5.921875 -13.203125 C 5.546875 -13.203125 5.238281 -13.070312 5 -12.8125 C 4.757812 -12.550781 4.640625 -12.234375 4.640625 -11.859375 C 4.640625 -11.347656 4.890625 -10.96875 5.390625 -10.71875 C 5.484375 -10.6875 5.578125 -10.65625 5.671875 -10.625 C 5.773438 -10.59375 6.007812 -10.535156 6.375 -10.453125 Z M 4.796875 -7.296875 "/></g></g></g><g fill="#bb86fc" fill-opacity="1"><g transform="translate(14.881209, 25.805923)"><g><path d="M 3.25 -10.84375 L 6.75 -10.84375 L 6.75 0 L 3.25 0 Z M -0.484375 -16.234375 L 10.453125 -16.234375 L 10.453125 -12.84375 L -0.484375 -12.84375 Z M -0.484375 -16.234375 "/></g></g></g><g fill="#bb86fc" fill-opacity="1"><g transform="translate(24.853108, 25.805923)"><g><path d="M 7.15625 0.3125 C 6.363281 0.1875 5.628906 -0.0625 4.953125 -0.4375 C 4.273438 -0.820312 3.664062 -1.300781 3.125 -1.875 C 2.53125 -2.53125 2.101562 -3.25 1.84375 -4.03125 C 1.582031 -4.820312 1.453125 -5.804688 1.453125 -6.984375 L 1.453125 -16.234375 L 4.953125 -16.234375 L 4.953125 -7.296875 C 4.953125 -6.671875 4.984375 -6.140625 5.046875 -5.703125 C 5.109375 -5.265625 5.222656 -4.890625 5.390625 -4.578125 C 5.566406 -4.273438 5.796875 -4.019531 6.078125 -3.8125 C 6.359375 -3.601562 6.71875 -3.414062 7.15625 -3.25 Z M 9.078125 -3.25 C 9.515625 -3.394531 9.875 -3.570312 10.15625 -3.78125 C 10.4375 -3.988281 10.664062 -4.257812 10.84375 -4.59375 C 11.019531 -4.875 11.140625 -5.210938 11.203125 -5.609375 C 11.273438 -6.015625 11.3125 -6.578125 11.3125 -7.296875 L 11.3125 -16.234375 L 14.796875 -16.234375 L 14.796875 -6.984375 C 14.796875 -5.804688 14.664062 -4.820312 14.40625 -4.03125 C 14.15625 -3.25 13.726562 -2.53125 13.125 -1.875 C 12.59375 -1.289062 11.976562 -0.8125 11.28125 -0.4375 C 10.582031 -0.0625 9.847656 0.1875 9.078125 0.3125 Z M 9.078125 -3.25 "/></g></g></g><g fill="#bb86fc" fill-opacity="1"><g transform="translate(41.108999, 25.805923)"><g><path d="M 1.625 -16.234375 L 5.125 -16.234375 L 5.125 0 L 1.625 0 Z M 7.0625 -3.421875 L 8.328125 -3.421875 C 9.234375 -3.421875 9.972656 -3.519531 10.546875 -3.71875 C 11.117188 -3.925781 11.644531 -4.269531 12.125 -4.75 C 13.050781 -5.707031 13.515625 -6.816406 13.515625 -8.078125 C 13.515625 -8.859375 13.335938 -9.59375 12.984375 -10.28125 C 12.640625 -10.96875 12.160156 -11.53125 11.546875 -11.96875 C 11.316406 -12.125 11.082031 -12.257812 10.84375 -12.375 C 10.613281 -12.488281 10.363281 -12.582031 10.09375 -12.65625 C 9.820312 -12.726562 9.507812 -12.773438 9.15625 -12.796875 C 8.8125 -12.828125 8.410156 -12.84375 7.953125 -12.84375 L 7.0625 -12.84375 L 7.0625 -16.234375 L 8.296875 -16.234375 C 9.585938 -16.234375 10.691406 -16.078125 11.609375 -15.765625 C 12.523438 -15.460938 13.367188 -14.972656 14.140625 -14.296875 C 15.066406 -13.472656 15.769531 -12.535156 16.25 -11.484375 C 16.738281 -10.441406 16.984375 -9.320312 16.984375 -8.125 C 16.984375 -6.769531 16.671875 -5.492188 16.046875 -4.296875 C 15.429688 -3.097656 14.5625 -2.109375 13.4375 -1.328125 C 12.757812 -0.859375 12.023438 -0.519531 11.234375 -0.3125 C 10.453125 -0.101562 9.519531 0 8.4375 0 L 7.0625 0 Z M 7.0625 -3.421875 "/></g></g></g><g fill="#bb86fc" fill-opacity="1"><g transform="translate(58.94195, 25.805923)"><g><path d="M 3.984375 -8.328125 L 9.75 -16.234375 L 14.078125 -16.234375 L 7.46875 -7.1875 L 7.46875 0 L 3.984375 0 Z M -1.59375 -16.234375 L 2.671875 -16.234375 L 4.921875 -13.03125 L 2.734375 -10.09375 Z M -1.59375 -16.234375 "/></g></g></g><g fill="#bb86fc" fill-opacity="1"><g transform="translate(71.388619, 25.805923)"><g/></g></g><g fill="#bb86fc" fill-opacity="1"><g transform="translate(77.45425, 25.805923)"><g><path d="M 4.25 -4.875 C 4.425781 -3.613281 5.070312 -2.984375 6.1875 -2.984375 C 6.71875 -2.984375 7.160156 -3.164062 7.515625 -3.53125 C 7.878906 -3.894531 8.0625 -4.351562 8.0625 -4.90625 C 8.0625 -5.320312 7.953125 -5.664062 7.734375 -5.9375 C 7.523438 -6.21875 7.1875 -6.460938 6.71875 -6.671875 L 8.296875 -9.78125 C 10.460938 -8.789062 11.546875 -7.1875 11.546875 -4.96875 C 11.546875 -4.207031 11.40625 -3.5 11.125 -2.84375 C 10.851562 -2.195312 10.472656 -1.628906 9.984375 -1.140625 C 9.503906 -0.648438 8.9375 -0.265625 8.28125 0.015625 C 7.625 0.296875 6.914062 0.4375 6.15625 0.4375 C 5.21875 0.4375 4.34375 0.210938 3.53125 -0.234375 C 2.71875 -0.691406 2.066406 -1.328125 1.578125 -2.140625 C 1.335938 -2.535156 1.15625 -2.941406 1.03125 -3.359375 C 0.90625 -3.785156 0.828125 -4.289062 0.796875 -4.875 Z M 4.796875 -7.296875 C 4.234375 -7.460938 3.78125 -7.632812 3.4375 -7.8125 C 3.101562 -7.988281 2.78125 -8.222656 2.46875 -8.515625 C 2.050781 -8.929688 1.722656 -9.425781 1.484375 -10 C 1.253906 -10.582031 1.140625 -11.203125 1.140625 -11.859375 C 1.140625 -12.546875 1.257812 -13.175781 1.5 -13.75 C 1.75 -14.320312 2.085938 -14.820312 2.515625 -15.25 C 2.953125 -15.675781 3.460938 -16.007812 4.046875 -16.25 C 4.628906 -16.5 5.257812 -16.625 5.9375 -16.625 C 6.632812 -16.625 7.269531 -16.507812 7.84375 -16.28125 C 8.425781 -16.050781 8.929688 -15.726562 9.359375 -15.3125 C 9.785156 -14.894531 10.125 -14.390625 10.375 -13.796875 C 10.625 -13.203125 10.765625 -12.539062 10.796875 -11.8125 L 7.1875 -11.8125 C 7.070312 -12.738281 6.648438 -13.203125 5.921875 -13.203125 C 5.546875 -13.203125 5.238281 -13.070312 5 -12.8125 C 4.757812 -12.550781 4.640625 -12.234375 4.640625 -11.859375 C 4.640625 -11.347656 4.890625 -10.96875 5.390625 -10.71875 C 5.484375 -10.6875 5.578125 -10.65625 5.671875 -10.625 C 5.773438 -10.59375 6.007812 -10.535156 6.375 -10.453125 Z M 4.796875 -7.296875 "/></g></g></g><g fill="#bb86fc" fill-opacity="1"><g transform="translate(89.828133, 25.805923)"><g><path d="M 1.625 -16.234375 L 5.125 -16.234375 L 5.125 0 L 1.625 0 Z M 7.109375 -3.390625 L 13.484375 -3.390625 L 13.484375 0 L 7.109375 0 Z M 7.109375 -9.796875 L 13.484375 -9.796875 L 13.484375 -6.40625 L 7.109375 -6.40625 Z M 7.109375 -16.234375 L 13.484375 -16.234375 L 13.484375 -12.84375 L 7.109375 -12.84375 Z M 7.109375 -16.234375 "/></g></g></g><g fill="#bb86fc" fill-opacity="1"><g transform="translate(104.725324, 25.805923)"><g><path d="M 4.25 -4.875 C 4.425781 -3.613281 5.070312 -2.984375 6.1875 -2.984375 C 6.71875 -2.984375 7.160156 -3.164062 7.515625 -3.53125 C 7.878906 -3.894531 8.0625 -4.351562 8.0625 -4.90625 C 8.0625 -5.320312 7.953125 -5.664062 7.734375 -5.9375 C 7.523438 -6.21875 7.1875 -6.460938 6.71875 -6.671875 L 8.296875 -9.78125 C 10.460938 -8.789062 11.546875 -7.1875 11.546875 -4.96875 C 11.546875 -4.207031 11.40625 -3.5 11.125 -2.84375 C 10.851562 -2.195312 10.472656 -1.628906 9.984375 -1.140625 C 9.503906 -0.648438 8.9375 -0.265625 8.28125 0.015625 C 7.625 0.296875 6.914062 0.4375 6.15625 0.4375 C 5.21875 0.4375 4.34375 0.210938 3.53125 -0.234375 C 2.71875 -0.691406 2.066406 -1.328125 1.578125 -2.140625 C 1.335938 -2.535156 1.15625 -2.941406 1.03125 -3.359375 C 0.90625 -3.785156 0.828125 -4.289062 0.796875 -4.875 Z M 4.796875 -7.296875 C 4.234375 -7.460938 3.78125 -7.632812 3.4375 -7.8125 C 3.101562 -7.988281 2.78125 -8.222656 2.46875 -8.515625 C 2.050781 -8.929688 1.722656 -9.425781 1.484375 -10 C 1.253906 -10.582031 1.140625 -11.203125 1.140625 -11.859375 C 1.140625 -12.546875 1.257812 -13.175781 1.5 -13.75 C 1.75 -14.320312 2.085938 -14.820312 2.515625 -15.25 C 2.953125 -15.675781 3.460938 -16.007812 4.046875 -16.25 C 4.628906 -16.5 5.257812 -16.625 5.9375 -16.625 C 6.632812 -16.625 7.269531 -16.507812 7.84375 -16.28125 C 8.425781 -16.050781 8.929688 -15.726562 9.359375 -15.3125 C 9.785156 -14.894531 10.125 -14.390625 10.375 -13.796875 C 10.625 -13.203125 10.765625 -12.539062 10.796875 -11.8125 L 7.1875 -11.8125 C 7.070312 -12.738281 6.648438 -13.203125 5.921875 -13.203125 C 5.546875 -13.203125 5.238281 -13.070312 5 -12.8125 C 4.757812 -12.550781 4.640625 -12.234375 4.640625 -11.859375 C 4.640625 -11.347656 4.890625 -10.96875 5.390625 -10.71875 C 5.484375 -10.6875 5.578125 -10.65625 5.671875 -10.625 C 5.773438 -10.59375 6.007812 -10.535156 6.375 -10.453125 Z M 4.796875 -7.296875 "/></g></g></g><g fill="#bb86fc" fill-opacity="1"><g transform="translate(117.099207, 25.805923)"><g><path d="M 4.25 -4.875 C 4.425781 -3.613281 5.070312 -2.984375 6.1875 -2.984375 C 6.71875 -2.984375 7.160156 -3.164062 7.515625 -3.53125 C 7.878906 -3.894531 8.0625 -4.351562 8.0625 -4.90625 C 8.0625 -5.320312 7.953125 -5.664062 7.734375 -5.9375 C 7.523438 -6.21875 7.1875 -6.460938 6.71875 -6.671875 L 8.296875 -9.78125 C 10.460938 -8.789062 11.546875 -7.1875 11.546875 -4.96875 C 11.546875 -4.207031 11.40625 -3.5 11.125 -2.84375 C 10.851562 -2.195312 10.472656 -1.628906 9.984375 -1.140625 C 9.503906 -0.648438 8.9375 -0.265625 8.28125 0.015625 C 7.625 0.296875 6.914062 0.4375 6.15625 0.4375 C 5.21875 0.4375 4.34375 0.210938 3.53125 -0.234375 C 2.71875 -0.691406 2.066406 -1.328125 1.578125 -2.140625 C 1.335938 -2.535156 1.15625 -2.941406 1.03125 -3.359375 C 0.90625 -3.785156 0.828125 -4.289062 0.796875 -4.875 Z M 4.796875 -7.296875 C 4.234375 -7.460938 3.78125 -7.632812 3.4375 -7.8125 C 3.101562 -7.988281 2.78125 -8.222656 2.46875 -8.515625 C 2.050781 -8.929688 1.722656 -9.425781 1.484375 -10 C 1.253906 -10.582031 1.140625 -11.203125 1.140625 -11.859375 C 1.140625 -12.546875 1.257812 -13.175781 1.5 -13.75 C 1.75 -14.320312 2.085938 -14.820312 2.515625 -15.25 C 2.953125 -15.675781 3.460938 -16.007812 4.046875 -16.25 C 4.628906 -16.5 5.257812 -16.625 5.9375 -16.625 C 6.632812 -16.625 7.269531 -16.507812 7.84375 -16.28125 C 8.425781 -16.050781 8.929688 -15.726562 9.359375 -15.3125 C 9.785156 -14.894531 10.125 -14.390625 10.375 -13.796875 C 10.625 -13.203125 10.765625 -12.539062 10.796875 -11.8125 L 7.1875 -11.8125 C 7.070312 -12.738281 6.648438 -13.203125 5.921875 -13.203125 C 5.546875 -13.203125 5.238281 -13.070312 5 -12.8125 C 4.757812 -12.550781 4.640625 -12.234375 4.640625 -11.859375 C 4.640625 -11.347656 4.890625 -10.96875 5.390625 -10.71875 C 5.484375 -10.6875 5.578125 -10.65625 5.671875 -10.625 C 5.773438 -10.59375 6.007812 -10.535156 6.375 -10.453125 Z M 4.796875 -7.296875 "/></g></g></g><g fill="#bb86fc" fill-opacity="1"><g transform="translate(129.473089, 25.805923)"><g><path d="M 1.625 -16.234375 L 5.125 -16.234375 L 5.125 0 L 1.625 0 Z M 1.625 -16.234375 "/></g></g></g><g fill="#bb86fc" fill-opacity="1"><g transform="translate(136.193812, 25.805923)"><g><path d="M 4.421875 -7.109375 C 4.546875 -6.492188 4.757812 -5.9375 5.0625 -5.4375 C 5.375 -4.945312 5.75 -4.523438 6.1875 -4.171875 C 6.625 -3.816406 7.109375 -3.539062 7.640625 -3.34375 C 8.171875 -3.15625 8.742188 -3.0625 9.359375 -3.0625 C 10.578125 -3.0625 11.628906 -3.421875 12.515625 -4.140625 C 13.410156 -4.859375 14.019531 -5.847656 14.34375 -7.109375 L 17.859375 -7.109375 C 17.710938 -6.003906 17.390625 -4.988281 16.890625 -4.0625 C 16.398438 -3.144531 15.78125 -2.347656 15.03125 -1.671875 C 14.28125 -1.003906 13.421875 -0.484375 12.453125 -0.109375 C 11.492188 0.253906 10.472656 0.4375 9.390625 0.4375 C 8.304688 0.4375 7.28125 0.25 6.3125 -0.125 C 5.34375 -0.507812 4.476562 -1.039062 3.71875 -1.71875 C 2.957031 -2.394531 2.328125 -3.195312 1.828125 -4.125 C 1.335938 -5.050781 1.023438 -6.046875 0.890625 -7.109375 Z M 0.890625 -9.078125 C 1.023438 -10.140625 1.335938 -11.128906 1.828125 -12.046875 C 2.328125 -12.972656 2.957031 -13.773438 3.71875 -14.453125 C 4.476562 -15.140625 5.34375 -15.671875 6.3125 -16.046875 C 7.28125 -16.429688 8.304688 -16.625 9.390625 -16.625 C 10.472656 -16.625 11.492188 -16.4375 12.453125 -16.0625 C 13.421875 -15.6875 14.28125 -15.160156 15.03125 -14.484375 C 15.78125 -13.816406 16.398438 -13.019531 16.890625 -12.09375 C 17.390625 -11.175781 17.710938 -10.171875 17.859375 -9.078125 L 14.34375 -9.078125 C 14.019531 -10.335938 13.410156 -11.328125 12.515625 -12.046875 C 11.628906 -12.765625 10.578125 -13.125 9.359375 -13.125 C 8.742188 -13.125 8.171875 -13.023438 7.640625 -12.828125 C 7.109375 -12.640625 6.625 -12.367188 6.1875 -12.015625 C 5.75 -11.660156 5.375 -11.226562 5.0625 -10.71875 C 4.757812 -10.21875 4.546875 -9.671875 4.421875 -9.078125 Z M 0.890625 -9.078125 "/></g></g></g><g fill="#bb86fc" fill-opacity="1"><g transform="translate(154.948743, 25.805923)"><g><path d="M 1.625 -9.5625 L 5.125 -6.5 L 5.125 0 L 1.625 0 Z M 1.625 -12.125 L 1.625 -16.765625 L 12.453125 -7.1875 L 12.453125 -16.234375 L 15.9375 -16.234375 L 15.9375 0.515625 Z M 1.625 -12.125 "/></g></g></g><g fill="#bb86fc" fill-opacity="1"><g transform="translate(172.514806, 25.805923)"><g/></g></g><g fill="#bb86fc" fill-opacity="1"><g transform="translate(178.580438, 25.805923)"><g><path d="M 4.484375 -11.09375 L 6.4375 -7.28125 L 2.6875 0 L -1.21875 0 Z M 10.9375 -2.71875 L 6.09375 -2.71875 L 7.8125 -6.109375 L 9.203125 -6.109375 L 5.53125 -13.171875 L 7.5 -16.96875 L 16.265625 0 L 12.328125 0 Z M 10.9375 -2.71875 "/></g></g></g><g fill="#bb86fc" fill-opacity="1"><g transform="translate(193.890103, 25.805923)"><g><path d="M 1.453125 -16.234375 L 4.953125 -16.234375 L 4.953125 0 L 1.453125 0 Z M 6.921875 -9.828125 L 8.0625 -9.828125 C 8.457031 -9.828125 8.753906 -9.835938 8.953125 -9.859375 C 9.148438 -9.890625 9.335938 -9.941406 9.515625 -10.015625 C 9.773438 -10.128906 9.976562 -10.300781 10.125 -10.53125 C 10.28125 -10.769531 10.359375 -11.035156 10.359375 -11.328125 C 10.359375 -11.578125 10.300781 -11.804688 10.1875 -12.015625 C 10.070312 -12.222656 9.925781 -12.390625 9.75 -12.515625 C 9.570312 -12.628906 9.375 -12.707031 9.15625 -12.75 C 8.9375 -12.789062 8.625 -12.8125 8.21875 -12.8125 L 6.921875 -12.8125 L 6.921875 -16.234375 L 8 -16.234375 C 8.519531 -16.234375 8.976562 -16.210938 9.375 -16.171875 C 9.769531 -16.128906 10.132812 -16.0625 10.46875 -15.96875 C 10.800781 -15.875 11.097656 -15.742188 11.359375 -15.578125 C 11.628906 -15.410156 11.894531 -15.21875 12.15625 -15 C 12.675781 -14.53125 13.082031 -13.976562 13.375 -13.34375 C 13.664062 -12.71875 13.8125 -12.046875 13.8125 -11.328125 C 13.8125 -10.566406 13.644531 -9.84375 13.3125 -9.15625 C 12.976562 -8.46875 12.515625 -7.890625 11.921875 -7.421875 C 11.441406 -7.046875 10.925781 -6.78125 10.375 -6.625 C 9.832031 -6.476562 9.125 -6.40625 8.25 -6.40625 L 6.921875 -6.40625 Z M 6.921875 -9.828125 "/></g></g></g><g fill="#bb86fc" fill-opacity="1"><g transform="translate(208.132214, 25.805923)"><g><path d="M 1.453125 -16.234375 L 4.953125 -16.234375 L 4.953125 0 L 1.453125 0 Z M 6.921875 -9.828125 L 8.0625 -9.828125 C 8.457031 -9.828125 8.753906 -9.835938 8.953125 -9.859375 C 9.148438 -9.890625 9.335938 -9.941406 9.515625 -10.015625 C 9.773438 -10.128906 9.976562 -10.300781 10.125 -10.53125 C 10.28125 -10.769531 10.359375 -11.035156 10.359375 -11.328125 C 10.359375 -11.578125 10.300781 -11.804688 10.1875 -12.015625 C 10.070312 -12.222656 9.925781 -12.390625 9.75 -12.515625 C 9.570312 -12.628906 9.375 -12.707031 9.15625 -12.75 C 8.9375 -12.789062 8.625 -12.8125 8.21875 -12.8125 L 6.921875 -12.8125 L 6.921875 -16.234375 L 8 -16.234375 C 8.519531 -16.234375 8.976562 -16.210938 9.375 -16.171875 C 9.769531 -16.128906 10.132812 -16.0625 10.46875 -15.96875 C 10.800781 -15.875 11.097656 -15.742188 11.359375 -15.578125 C 11.628906 -15.410156 11.894531 -15.21875 12.15625 -15 C 12.675781 -14.53125 13.082031 -13.976562 13.375 -13.34375 C 13.664062 -12.71875 13.8125 -12.046875 13.8125 -11.328125 C 13.8125 -10.566406 13.644531 -9.84375 13.3125 -9.15625 C 12.976562 -8.46875 12.515625 -7.890625 11.921875 -7.421875 C 11.441406 -7.046875 10.925781 -6.78125 10.375 -6.625 C 9.832031 -6.476562 9.125 -6.40625 8.25 -6.40625 L 6.921875 -6.40625 Z M 6.921875 -9.828125 "/></g></g></g></svg>