<svg xmlns="http://www.w3.org/2000/svg" xmlns:xlink="http://www.w3.org/1999/xlink" width="300" zoomAndPan="magnify" viewBox="0 0 224.87999 37.5" height="50" preserveAspectRatio="xMidYMid meet" version="1.0"><defs><g/></defs><g fill="#bb86fc" fill-opacity="1"><g transform="translate(2.2876, 25.361837)"><g><path d="M 4.625 -11.976562 C 4.625 -12.785156 5.539062 -13.234375 7.222656 -13.234375 C 8.820312 -13.234375 9.757812 -12.847656 10.929688 -11.675781 L 12.402344 -13.273438 C 11.273438 -14.511719 9.269531 -15.277344 7.054688 -15.277344 C 3.429688 -15.277344 0.683594 -13.210938 0.683594 -10.484375 C 0.703125 -5.753906 8.863281 -5.625 8.886719 -2.941406 C 8.886719 -2.152344 8.160156 -1.703125 6.5625 -1.703125 C 4.625 -1.703125 3.132812 -2.363281 2.128906 -3.75 L 0.53125 -2.664062 C 1.855469 -0.703125 4.046875 0.363281 6.5625 0.363281 C 10.183594 0.363281 12.804688 -1.789062 12.804688 -4.539062 C 12.804688 -9.398438 4.601562 -9.589844 4.625 -11.976562 Z M 4.625 -11.976562 "/></g></g></g><g fill="#bb86fc" fill-opacity="1"><g transform="translate(15.835578, 25.361837)"><g><path d="M 0.53125 -13 L 4.964844 -13 L 4.964844 0 L 8.90625 0 L 8.90625 -13 L 13.339844 -13 L 13.339844 -14.914062 L 0.53125 -14.914062 Z M 0.53125 -13 "/></g></g></g><g fill="#bb86fc" fill-opacity="1"><g transform="translate(29.703084, 25.361837)"><g><path d="M 11.761719 -5.921875 C 11.761719 -3.367188 10.546875 -1.746094 8.609375 -1.746094 C 6.648438 -1.746094 5.433594 -3.367188 5.433594 -5.921875 L 5.433594 -14.914062 L 1.492188 -14.914062 L 1.492188 -5.921875 C 1.492188 -2.046875 3.855469 0.363281 7.671875 0.363281 C 11.484375 0.363281 13.851562 -2.046875 13.851562 -5.921875 L 13.851562 -14.914062 L 11.761719 -14.914062 Z M 11.761719 -5.921875 "/></g></g></g><g fill="#bb86fc" fill-opacity="1"><g transform="translate(44.827399, 25.361837)"><g><path d="M 1.492188 -14.914062 L 1.492188 0 L 7.09375 0 C 11.292969 0 14.425781 -3.195312 14.425781 -7.523438 C 14.425781 -11.785156 11.355469 -14.914062 7.09375 -14.914062 Z M 5.433594 -1.917969 L 5.433594 -13 L 7.074219 -13 C 8.777344 -13 10.078125 -10.589844 10.078125 -7.457031 C 10.078125 -4.324219 8.777344 -1.917969 7.074219 -1.917969 Z M 5.433594 -1.917969 "/></g></g></g><g fill="#bb86fc" fill-opacity="1"><g transform="translate(60.313852, 25.361837)"><g><path d="M 7.628906 -8.460938 L 4.984375 -14.914062 L 0.53125 -14.914062 L 4.625 -5.5625 L 4.625 0 L 8.566406 0 L 8.566406 -5.882812 L 13.082031 -14.914062 L 10.738281 -14.914062 Z M 7.628906 -8.460938 "/></g></g></g><g fill="#bb86fc" fill-opacity="1"><g transform="translate(73.925741, 25.361837)"><g/></g></g><g fill="#bb86fc" fill-opacity="1"><g transform="translate(80.848844, 25.361837)"><g><path d="M 4.625 -11.976562 C 4.625 -12.785156 5.539062 -13.234375 7.222656 -13.234375 C 8.820312 -13.234375 9.757812 -12.847656 10.929688 -11.675781 L 12.402344 -13.273438 C 11.273438 -14.511719 9.269531 -15.277344 7.054688 -15.277344 C 3.429688 -15.277344 0.683594 -13.210938 0.683594 -10.484375 C 0.703125 -5.753906 8.863281 -5.625 8.886719 -2.941406 C 8.886719 -2.152344 8.160156 -1.703125 6.5625 -1.703125 C 4.625 -1.703125 3.132812 -2.363281 2.128906 -3.75 L 0.53125 -2.664062 C 1.855469 -0.703125 4.046875 0.363281 6.5625 0.363281 C 10.183594 0.363281 12.804688 -1.789062 12.804688 -4.539062 C 12.804688 -9.398438 4.601562 -9.589844 4.625 -11.976562 Z M 4.625 -11.976562 "/></g></g></g><g fill="#bb86fc" fill-opacity="1"><g transform="translate(94.396822, 25.361837)"><g><path d="M 5.433594 -6.5 L 8.695312 -6.5 L 8.695312 -8.417969 L 5.433594 -8.417969 L 5.433594 -13 L 11.464844 -13 L 11.464844 -14.914062 L 1.492188 -14.914062 L 1.492188 0 L 11.890625 0 L 11.890625 -1.917969 L 5.433594 -1.917969 Z M 5.433594 -6.5 "/></g></g></g><g fill="#bb86fc" fill-opacity="1"><g transform="translate(107.028817, 25.361837)"><g><path d="M 4.625 -11.976562 C 4.625 -12.785156 5.539062 -13.234375 7.222656 -13.234375 C 8.820312 -13.234375 9.757812 -12.847656 10.929688 -11.675781 L 12.402344 -13.273438 C 11.273438 -14.511719 9.269531 -15.277344 7.054688 -15.277344 C 3.429688 -15.277344 0.683594 -13.210938 0.683594 -10.484375 C 0.703125 -5.753906 8.863281 -5.625 8.886719 -2.941406 C 8.886719 -2.152344 8.160156 -1.703125 6.5625 -1.703125 C 4.625 -1.703125 3.132812 -2.363281 2.128906 -3.75 L 0.53125 -2.664062 C 1.855469 -0.703125 4.046875 0.363281 6.5625 0.363281 C 10.183594 0.363281 12.804688 -1.789062 12.804688 -4.539062 C 12.804688 -9.398438 4.601562 -9.589844 4.625 -11.976562 Z M 4.625 -11.976562 "/></g></g></g><g fill="#bb86fc" fill-opacity="1"><g transform="translate(120.576796, 25.361837)"><g><path d="M 4.625 -11.976562 C 4.625 -12.785156 5.539062 -13.234375 7.222656 -13.234375 C 8.820312 -13.234375 9.757812 -12.847656 10.929688 -11.675781 L 12.402344 -13.273438 C 11.273438 -14.511719 9.269531 -15.277344 7.054688 -15.277344 C 3.429688 -15.277344 0.683594 -13.210938 0.683594 -10.484375 C 0.703125 -5.753906 8.863281 -5.625 8.886719 -2.941406 C 8.886719 -2.152344 8.160156 -1.703125 6.5625 -1.703125 C 4.625 -1.703125 3.132812 -2.363281 2.128906 -3.75 L 0.53125 -2.664062 C 1.855469 -0.703125 4.046875 0.363281 6.5625 0.363281 C 10.183594 0.363281 12.804688 -1.789062 12.804688 -4.539062 C 12.804688 -9.398438 4.601562 -9.589844 4.625 -11.976562 Z M 4.625 -11.976562 "/></g></g></g><g fill="#bb86fc" fill-opacity="1"><g transform="translate(134.124774, 25.361837)"><g><path d="M 5.21875 0 L 5.21875 -14.914062 L 1.277344 -14.914062 L 1.277344 0 Z M 5.21875 0 "/></g></g></g><g fill="#bb86fc" fill-opacity="1"><g transform="translate(140.621841, 25.361837)"><g><path d="M 8.757812 -15.277344 C 4.515625 -15.277344 1.066406 -11.785156 1.066406 -7.457031 C 1.066406 -3.152344 4.515625 0.363281 8.757812 0.363281 C 13 0.363281 16.449219 -3.152344 16.449219 -7.457031 C 16.449219 -11.785156 13 -15.277344 8.757812 -15.277344 Z M 8.757812 -1.746094 C 6.925781 -1.746094 5.414062 -4.304688 5.414062 -7.457031 C 5.414062 -10.613281 6.925781 -13.167969 8.757812 -13.167969 C 10.613281 -13.167969 12.101562 -10.613281 12.101562 -7.457031 C 12.101562 -4.304688 10.613281 -1.746094 8.757812 -1.746094 Z M 8.757812 -1.746094 "/></g></g></g><g fill="#bb86fc" fill-opacity="1"><g transform="translate(158.131967, 25.361837)"><g><path d="M 5.476562 -14.914062 L 1.277344 -14.914062 L 1.277344 0 L 3.367188 0 L 3.367188 -10.417969 L 9.632812 0 L 13.253906 0 L 13.253906 -14.914062 L 11.164062 -14.914062 L 11.164062 -5.433594 Z M 5.476562 -14.914062 "/></g></g></g><g fill="#bb86fc" fill-opacity="1"><g transform="translate(172.659838, 25.361837)"><g/></g></g><g fill="#bb86fc" fill-opacity="1"><g transform="translate(179.582941, 25.361837)"><g><path d="M 0.53125 0 L 2.769531 0 L 4.070312 -3.878906 L 8.566406 -3.878906 L 9.84375 0 L 14.019531 0 L 8.800781 -14.914062 L 5.753906 -14.914062 Z M 6.308594 -10.675781 L 7.925781 -5.796875 L 4.710938 -5.796875 Z M 6.308594 -10.675781 "/></g></g></g><g fill="#bb86fc" fill-opacity="1"><g transform="translate(194.132101, 25.361837)"><g><path d="M 1.492188 -14.914062 L 1.492188 0 L 5.433594 0 L 5.433594 -4.816406 L 8.503906 -4.816406 C 11.25 -4.816406 13.488281 -7.074219 13.488281 -9.867188 C 13.488281 -12.65625 11.25 -14.914062 8.503906 -14.914062 Z M 5.433594 -6.734375 L 5.433594 -13 L 7.371094 -13 C 8.332031 -13 9.140625 -11.589844 9.140625 -9.867188 C 9.140625 -8.140625 8.332031 -6.734375 7.371094 -6.734375 Z M 5.433594 -6.734375 "/></g></g></g><g fill="#bb86fc" fill-opacity="1"><g transform="translate(208.361744, 25.361837)"><g><path d="M 1.492188 -14.914062 L 1.492188 0 L 5.433594 0 L 5.433594 -4.816406 L 8.503906 -4.816406 C 11.25 -4.816406 13.488281 -7.074219 13.488281 -9.867188 C 13.488281 -12.65625 11.25 -14.914062 8.503906 -14.914062 Z M 5.433594 -6.734375 L 5.433594 -13 L 7.371094 -13 C 8.332031 -13 9.140625 -11.589844 9.140625 -9.867188 C 9.140625 -8.140625 8.332031 -6.734375 7.371094 -6.734375 Z M 5.433594 -6.734375 "/></g></g></g></svg>