<svg xmlns="http://www.w3.org/2000/svg" version="1.1" xmlns:xlink="http://www.w3.org/1999/xlink" xmlns:svgjs="http://svgjs.com/svgjs" width="500" height="500"><svg xmlns="http://www.w3.org/2000/svg" xmlns:xlink="http://www.w3.org/1999/xlink" width="500" zoomAndPan="magnify" viewBox="0 0 375 374.999991" height="500" preserveAspectRatio="xMidYMid meet" version="1.0"><defs><clipPath id="SvgjsClipPath1001"><path d="M 10 6.28125 L 331.65625 6.28125 L 331.65625 368.53125 L 10 368.53125 Z M 10 6.28125 " clip-rule="nonzero"></path></clipPath><clipPath id="SvgjsClipPath1000"><path d="M 86.792969 34.71875 L 276.542969 34.71875 L 276.542969 212.109375 L 86.792969 212.109375 Z M 86.792969 34.71875 " clip-rule="nonzero"></path></clipPath></defs><g clip-path="url(#83d32dbfd5)"><path fill="#80a3ff" d="M 293.804688 368.285156 C 292.648438 365.589844 291.699219 363.460938 290.808594 361.300781 C 282.125 340.28125 279.316406 318.273438 280.679688 295.769531 C 282.429688 266.921875 292.96875 241.015625 308.796875 217.1875 C 330.445312 184.589844 336.953125 149.3125 327.3125 111.464844 C 314.867188 62.636719 286.492188 27.34375 236.835938 13.609375 C 217.914062 8.378906 197.527344 7.582031 177.71875 6.707031 C 158.359375 5.851562 138.957031 7.964844 120.667969 15.542969 C 91.585938 27.585938 66.398438 44.085938 54.875 75.304688 C 49.464844 89.957031 44.808594 104.898438 40.230469 119.839844 C 37.519531 128.699219 37.597656 137.566406 41.953125 146.226562 C 44.851562 152.003906 44.703125 157.867188 40.695312 163.507812 C 31.925781 175.855469 23.375 188.367188 14.746094 200.820312 C 8.273438 210.164062 10.078125 217.839844 20.144531 223.085938 C 22.714844 224.425781 25.488281 225.625 28.304688 226.179688 C 33.816406 227.261719 34.960938 231.101562 32.945312 235.03125 C 28.429688 243.851562 31.285156 250.199219 36.695312 254.089844 C 36.960938 259.8125 35.660156 264.859375 37.613281 267.4375 C 42.632812 274.066406 43.101562 280.367188 41.355469 288.210938 C 37.5625 305.257812 45.757812 317.777344 62.96875 320.773438 C 74.429688 322.765625 86.214844 322.8125 97.835938 323.9375 C 112.9375 325.402344 118.578125 331.851562 119.273438 346.90625 C 119.597656 353.976562 121.027344 360.988281 121.996094 368.289062 C 179.542969 368.285156 236.316406 368.285156 293.804688 368.285156 Z M 293.804688 368.285156 " fill-opacity="1" fill-rule="nonzero"></path></g><path fill="#ffffff" d="M 309.441406 123.691406 C 309.441406 125.398438 309.390625 127.105469 309.292969 128.8125 C 309.195312 130.515625 309.046875 132.21875 308.847656 133.917969 C 308.652344 135.617188 308.40625 137.3125 308.113281 139 C 307.816406 140.691406 307.472656 142.371094 307.082031 144.046875 C 306.6875 145.722656 306.25 147.386719 305.761719 149.042969 C 305.273438 150.699219 304.738281 152.347656 304.152344 153.980469 C 303.570312 155.613281 302.941406 157.234375 302.261719 158.84375 C 301.585938 160.449219 300.863281 162.042969 300.09375 163.621094 C 299.324219 165.199219 298.511719 166.757812 297.652344 168.304688 C 296.792969 169.847656 295.890625 171.371094 294.941406 172.878906 C 293.996094 174.382812 293.003906 175.871094 291.972656 177.335938 C 290.9375 178.796875 289.863281 180.242188 288.75 181.660156 C 287.632812 183.082031 286.476562 184.476562 285.277344 185.847656 C 284.082031 187.21875 282.84375 188.566406 281.570312 189.886719 C 280.296875 191.207031 278.984375 192.5 277.632812 193.761719 C 276.285156 195.027344 274.898438 196.265625 273.480469 197.472656 C 272.058594 198.679688 270.605469 199.855469 269.113281 201.003906 C 267.625 202.152344 266.105469 203.265625 264.550781 204.347656 C 263 205.433594 261.414062 206.484375 259.800781 207.5 C 258.1875 208.515625 256.542969 209.5 254.875 210.449219 C 253.203125 211.398438 251.507812 212.3125 249.78125 213.1875 C 248.058594 214.066406 246.3125 214.910156 244.539062 215.714844 C 242.765625 216.519531 240.972656 217.285156 239.15625 218.015625 C 237.339844 218.746094 235.503906 219.4375 233.648438 220.089844 C 231.789062 220.746094 229.917969 221.359375 228.023438 221.933594 C 226.132812 222.511719 224.226562 223.046875 222.300781 223.539062 C 220.378906 224.035156 218.445312 224.492188 216.496094 224.90625 C 214.546875 225.320312 212.585938 225.695312 210.613281 226.027344 C 208.644531 226.363281 206.664062 226.652344 204.675781 226.90625 C 202.6875 227.15625 200.695312 227.363281 198.695312 227.53125 C 196.695312 227.699219 194.691406 227.824219 192.6875 227.910156 C 190.679688 227.992188 188.671875 228.035156 186.660156 228.035156 C 184.652344 228.035156 182.644531 227.992188 180.636719 227.910156 C 178.628906 227.824219 176.628906 227.699219 174.628906 227.53125 C 172.628906 227.363281 170.632812 227.15625 168.644531 226.90625 C 166.660156 226.652344 164.679688 226.363281 162.707031 226.027344 C 160.738281 225.695312 158.777344 225.320312 156.828125 224.90625 C 154.878906 224.492188 152.945312 224.035156 151.019531 223.539062 C 149.097656 223.046875 147.191406 222.507812 145.296875 221.933594 C 143.40625 221.359375 141.53125 220.746094 139.675781 220.089844 C 137.820312 219.4375 135.984375 218.746094 134.167969 218.015625 C 132.351562 217.285156 130.554688 216.519531 128.785156 215.714844 C 127.011719 214.910156 125.265625 214.066406 123.539062 213.1875 C 121.816406 212.3125 120.121094 211.398438 118.449219 210.449219 C 116.777344 209.5 115.136719 208.515625 113.523438 207.5 C 111.910156 206.484375 110.324219 205.433594 108.773438 204.347656 C 107.21875 203.265625 105.699219 202.152344 104.207031 201.003906 C 102.71875 199.855469 101.265625 198.679688 99.84375 197.472656 C 98.421875 196.265625 97.039062 195.027344 95.6875 193.761719 C 94.339844 192.5 93.027344 191.207031 91.753906 189.886719 C 90.476562 188.566406 89.242188 187.21875 88.046875 185.847656 C 86.847656 184.476562 85.691406 183.082031 84.574219 181.660156 C 83.457031 180.242188 82.382812 178.796875 81.351562 177.335938 C 80.316406 175.871094 79.328125 174.382812 78.378906 172.878906 C 77.433594 171.371094 76.53125 169.847656 75.671875 168.304688 C 74.8125 166.757812 73.996094 165.199219 73.230469 163.621094 C 72.460938 162.042969 71.738281 160.449219 71.058594 158.84375 C 70.382812 157.234375 69.753906 155.613281 69.171875 153.980469 C 68.585938 152.347656 68.050781 150.699219 67.5625 149.042969 C 67.074219 147.386719 66.632812 145.722656 66.242188 144.046875 C 65.851562 142.371094 65.507812 140.691406 65.210938 139 C 64.917969 137.3125 64.671875 135.617188 64.472656 133.917969 C 64.277344 132.21875 64.128906 130.515625 64.03125 128.8125 C 63.933594 127.105469 63.882812 125.398438 63.882812 123.691406 C 63.882812 121.984375 63.933594 120.277344 64.03125 118.570312 C 64.128906 116.867188 64.277344 115.164062 64.472656 113.464844 C 64.671875 111.765625 64.917969 110.070312 65.210938 108.382812 C 65.507812 106.691406 65.851562 105.007812 66.242188 103.335938 C 66.632812 101.660156 67.074219 99.996094 67.5625 98.339844 C 68.050781 96.679688 68.585938 95.035156 69.171875 93.402344 C 69.753906 91.769531 70.382812 90.148438 71.058594 88.539062 C 71.738281 86.929688 72.460938 85.339844 73.230469 83.761719 C 73.996094 82.183594 74.8125 80.621094 75.671875 79.078125 C 76.53125 77.535156 77.433594 76.011719 78.378906 74.503906 C 79.328125 73 80.316406 71.511719 81.351562 70.046875 C 82.382812 68.582031 83.457031 67.140625 84.574219 65.722656 C 85.691406 64.300781 86.847656 62.90625 88.046875 61.535156 C 89.242188 60.164062 90.476562 58.816406 91.753906 57.496094 C 93.027344 56.175781 94.339844 54.882812 95.6875 53.617188 C 97.039062 52.355469 98.421875 51.117188 99.84375 49.910156 C 101.265625 48.703125 102.71875 47.523438 104.207031 46.378906 C 105.699219 45.230469 107.21875 44.117188 108.773438 43.03125 C 110.324219 41.949219 111.910156 40.898438 113.523438 39.882812 C 115.136719 38.863281 116.777344 37.882812 118.449219 36.933594 C 120.121094 35.984375 121.816406 35.070312 123.539062 34.195312 C 125.265625 33.316406 127.011719 32.472656 128.785156 31.667969 C 130.554688 30.863281 132.351562 30.097656 134.167969 29.367188 C 135.984375 28.636719 137.820312 27.945312 139.675781 27.292969 C 141.53125 26.636719 143.40625 26.023438 145.296875 25.449219 C 147.191406 24.871094 149.097656 24.335938 151.019531 23.839844 C 152.945312 23.34375 154.878906 22.890625 156.828125 22.476562 C 158.777344 22.058594 160.738281 21.6875 162.707031 21.351562 C 164.679688 21.019531 166.660156 20.726562 168.644531 20.476562 C 170.632812 20.226562 172.628906 20.019531 174.628906 19.851562 C 176.628906 19.683594 178.628906 19.558594 180.636719 19.472656 C 182.644531 19.390625 184.652344 19.347656 186.660156 19.347656 C 188.671875 19.347656 190.679688 19.390625 192.6875 19.472656 C 194.691406 19.558594 196.695312 19.683594 198.695312 19.851562 C 200.695312 20.019531 202.6875 20.226562 204.675781 20.476562 C 206.664062 20.726562 208.644531 21.019531 210.613281 21.351562 C 212.585938 21.6875 214.546875 22.058594 216.496094 22.476562 C 218.445312 22.890625 220.378906 23.34375 222.300781 23.839844 C 224.226562 24.335938 226.132812 24.871094 228.023438 25.449219 C 229.917969 26.023438 231.789062 26.636719 233.648438 27.292969 C 235.503906 27.945312 237.339844 28.636719 239.15625 29.367188 C 240.972656 30.097656 242.765625 30.863281 244.539062 31.667969 C 246.3125 32.472656 248.058594 33.316406 249.78125 34.195312 C 251.507812 35.070312 253.203125 35.984375 254.875 36.933594 C 256.542969 37.882812 258.1875 38.863281 259.800781 39.882812 C 261.414062 40.898438 263 41.949219 264.550781 43.03125 C 266.105469 44.117188 267.625 45.230469 269.113281 46.378906 C 270.605469 47.523438 272.058594 48.703125 273.480469 49.910156 C 274.898438 51.117188 276.285156 52.355469 277.632812 53.617188 C 278.984375 54.882812 280.296875 56.175781 281.570312 57.496094 C 282.84375 58.816406 284.082031 60.164062 285.277344 61.535156 C 286.476562 62.90625 287.632812 64.300781 288.75 65.722656 C 289.863281 67.140625 290.9375 68.582031 291.972656 70.046875 C 293.003906 71.511719 293.996094 73 294.941406 74.503906 C 295.890625 76.011719 296.792969 77.535156 297.652344 79.078125 C 298.511719 80.621094 299.324219 82.183594 300.09375 83.761719 C 300.863281 85.339844 301.585938 86.929688 302.261719 88.539062 C 302.941406 90.148438 303.570312 91.769531 304.152344 93.402344 C 304.738281 95.035156 305.273438 96.679688 305.761719 98.339844 C 306.25 99.996094 306.6875 101.660156 307.082031 103.335938 C 307.472656 105.007812 307.816406 106.691406 308.113281 108.382812 C 308.40625 110.070312 308.652344 111.765625 308.847656 113.464844 C 309.046875 115.164062 309.195312 116.867188 309.292969 118.570312 C 309.390625 120.277344 309.441406 121.984375 309.441406 123.691406 Z M 309.441406 123.691406 " fill-opacity="1" fill-rule="nonzero"></path><g clip-path="url(#3c3c75f5ea)"><path fill="#f6b737" d="M 225.769531 46.984375 L 231.105469 34.714844 L 176.667969 47.292969 L 205.8125 92.875 L 211.730469 79.273438 C 229.304688 87.386719 241.503906 105.160156 241.503906 125.796875 C 241.503906 128.417969 241.304688 130.988281 240.925781 133.5 L 276.242188 132.925781 C 276.4375 130.546875 276.542969 128.140625 276.542969 125.710938 C 276.542969 90.691406 255.707031 60.550781 225.769531 46.984375 Z M 139.34375 130.9375 C 139.171875 129.246094 139.082031 127.53125 139.082031 125.796875 C 139.082031 104.515625 152.054688 86.269531 170.515625 78.53125 L 153.722656 47.371094 C 124.246094 61.121094 103.8125 91.027344 103.8125 125.710938 C 103.8125 128.050781 103.917969 130.367188 104.101562 132.660156 L 86.792969 133.507812 L 122.191406 176.75 L 150.121094 130.410156 Z M 217.636719 169.089844 C 209.722656 174.105469 200.355469 177.027344 190.292969 177.027344 C 176.738281 177.027344 164.421875 171.75 155.261719 163.144531 L 135.457031 192.554688 C 150.355469 204.773438 169.410156 212.109375 190.179688 212.109375 C 207.035156 212.109375 222.75 207.269531 236.039062 198.917969 L 242.867188 209.980469 L 263.617188 158.085938 L 209.5625 156.007812 L 217.636719 169.089844 " fill-opacity="1" fill-rule="nonzero"></path></g></svg><style>@media (prefers-color-scheme: light) { :root { filter: none; } }
</style></svg>