<svg xmlns="http://www.w3.org/2000/svg" xmlns:xlink="http://www.w3.org/1999/xlink" width="300" zoomAndPan="magnify" viewBox="0 0 224.87999 37.5" height="50" preserveAspectRatio="xMidYMid meet" version="1.0"><defs><g/><clipPath id="67fab62c17"><path d="M 7.71875 3.726562 L 32.140625 3.726562 L 32.140625 31.113281 L 7.71875 31.113281 Z M 7.71875 3.726562 " clip-rule="nonzero"/></clipPath><clipPath id="6d1d24c7d4"><path d="M 13.335938 5.589844 L 28.140625 5.589844 L 28.140625 18.886719 L 13.335938 18.886719 Z M 13.335938 5.589844 " clip-rule="nonzero"/></clipPath></defs><g clip-path="url(#67fab62c17)"><path fill="#80a3ff" d="M 29.277344 31.097656 C 29.1875 30.890625 29.117188 30.730469 29.046875 30.566406 C 28.390625 28.976562 28.179688 27.316406 28.28125 25.613281 C 28.414062 23.429688 29.210938 21.472656 30.410156 19.671875 C 32.050781 17.207031 32.542969 14.539062 31.8125 11.675781 C 30.871094 7.984375 28.722656 5.316406 24.960938 4.277344 C 23.527344 3.882812 21.984375 3.824219 20.484375 3.757812 C 19.019531 3.691406 17.546875 3.851562 16.164062 4.425781 C 13.960938 5.335938 12.054688 6.582031 11.179688 8.941406 C 10.769531 10.050781 10.417969 11.179688 10.070312 12.3125 C 9.867188 12.980469 9.871094 13.652344 10.203125 14.304688 C 10.421875 14.742188 10.410156 15.1875 10.105469 15.613281 C 9.441406 16.546875 8.792969 17.492188 8.140625 18.433594 C 7.652344 19.140625 7.789062 19.71875 8.550781 20.117188 C 8.746094 20.21875 8.953125 20.308594 9.167969 20.351562 C 9.585938 20.433594 9.671875 20.722656 9.519531 21.019531 C 9.175781 21.6875 9.394531 22.167969 9.804688 22.460938 C 9.824219 22.894531 9.726562 23.277344 9.871094 23.46875 C 10.253906 23.972656 10.289062 24.449219 10.15625 25.042969 C 9.871094 26.332031 10.488281 27.277344 11.792969 27.503906 C 12.660156 27.652344 13.554688 27.65625 14.433594 27.742188 C 15.578125 27.851562 16.003906 28.339844 16.058594 29.480469 C 16.082031 30.015625 16.191406 30.542969 16.261719 31.097656 C 20.621094 31.097656 24.921875 31.097656 29.277344 31.097656 Z M 29.277344 31.097656 " fill-opacity="1" fill-rule="nonzero"/></g><path fill="#ffffff" d="M 30.460938 12.601562 C 30.460938 13.121094 30.398438 13.632812 30.28125 14.140625 C 30.160156 14.648438 29.984375 15.140625 29.75 15.621094 C 29.519531 16.097656 29.230469 16.554688 28.890625 16.984375 C 28.554688 17.414062 28.167969 17.8125 27.734375 18.179688 C 27.304688 18.546875 26.835938 18.875 26.328125 19.160156 C 25.820312 19.449219 25.285156 19.691406 24.71875 19.890625 C 24.15625 20.089844 23.574219 20.238281 22.976562 20.339844 C 22.375 20.441406 21.773438 20.492188 21.160156 20.492188 C 20.550781 20.492188 19.945312 20.441406 19.347656 20.339844 C 18.75 20.238281 18.167969 20.089844 17.601562 19.890625 C 17.039062 19.691406 16.503906 19.449219 15.996094 19.160156 C 15.488281 18.875 15.019531 18.546875 14.585938 18.179688 C 14.152344 17.8125 13.769531 17.414062 13.429688 16.984375 C 13.089844 16.554688 12.804688 16.097656 12.570312 15.621094 C 12.335938 15.140625 12.160156 14.648438 12.042969 14.140625 C 11.921875 13.632812 11.863281 13.121094 11.863281 12.601562 C 11.863281 12.082031 11.921875 11.570312 12.042969 11.0625 C 12.160156 10.554688 12.335938 10.0625 12.570312 9.582031 C 12.804688 9.105469 13.089844 8.648438 13.429688 8.21875 C 13.769531 7.789062 14.152344 7.390625 14.585938 7.023438 C 15.019531 6.65625 15.488281 6.328125 15.996094 6.042969 C 16.503906 5.753906 17.039062 5.511719 17.601562 5.3125 C 18.167969 5.113281 18.75 4.964844 19.347656 4.863281 C 19.945312 4.761719 20.550781 4.710938 21.160156 4.710938 C 21.773438 4.710938 22.375 4.761719 22.976562 4.863281 C 23.574219 4.964844 24.15625 5.113281 24.71875 5.3125 C 25.285156 5.511719 25.820312 5.753906 26.328125 6.042969 C 26.835938 6.328125 27.304688 6.65625 27.734375 7.023438 C 28.167969 7.390625 28.554688 7.789062 28.890625 8.21875 C 29.230469 8.648438 29.519531 9.105469 29.75 9.582031 C 29.984375 10.0625 30.160156 10.554688 30.28125 11.0625 C 30.398438 11.570312 30.460938 12.082031 30.460938 12.601562 Z M 30.460938 12.601562 " fill-opacity="1" fill-rule="nonzero"/><g clip-path="url(#6d1d24c7d4)"><path fill="#f6b737" d="M 24.179688 6.511719 L 24.59375 5.589844 L 20.347656 6.535156 L 22.621094 9.949219 L 23.082031 8.929688 C 24.453125 9.539062 25.40625 10.871094 25.40625 12.417969 C 25.40625 12.613281 25.390625 12.808594 25.359375 12.996094 L 28.117188 12.953125 C 28.132812 12.773438 28.140625 12.59375 28.140625 12.410156 C 28.140625 9.785156 26.515625 7.527344 24.179688 6.511719 Z M 17.4375 12.804688 C 17.421875 12.675781 17.417969 12.546875 17.417969 12.417969 C 17.417969 10.824219 18.429688 9.457031 19.867188 8.875 L 18.558594 6.539062 C 16.257812 7.570312 14.664062 9.8125 14.664062 12.410156 C 14.664062 12.585938 14.671875 12.761719 14.6875 12.933594 L 13.335938 12.996094 L 16.097656 16.238281 L 18.277344 12.765625 Z M 23.542969 15.664062 C 22.925781 16.039062 22.195312 16.257812 21.410156 16.257812 C 20.355469 16.257812 19.394531 15.863281 18.679688 15.21875 L 17.132812 17.421875 C 18.296875 18.339844 19.78125 18.886719 21.402344 18.886719 C 22.71875 18.886719 23.945312 18.527344 24.980469 17.898438 L 25.511719 18.730469 L 27.132812 14.839844 L 22.914062 14.683594 L 23.542969 15.664062 " fill-opacity="1" fill-rule="nonzero"/></g><g fill="#000000" fill-opacity="1"><g transform="translate(35.995336, 26.647734)"><g><path d="M 12.4375 -15.515625 L 12.4375 -12.9375 L 7.953125 -12.9375 L 7.953125 0 L 4.90625 0 L 4.90625 -12.9375 L 0.421875 -12.9375 L 0.421875 -15.515625 Z M 12.4375 -15.515625 "/></g></g></g><g fill="#000000" fill-opacity="1"><g transform="translate(48.856048, 26.647734)"><g><path d="M 1.6875 0 L 1.6875 -16.40625 L 4.625 -16.40625 L 4.625 -10.171875 L 4.84375 -10.140625 C 5.238281 -10.710938 5.71875 -11.148438 6.28125 -11.453125 C 6.84375 -11.765625 7.523438 -11.921875 8.328125 -11.921875 C 10.910156 -11.921875 12.203125 -10.457031 12.203125 -7.53125 L 12.203125 0 L 9.265625 0 L 9.265625 -7.15625 C 9.265625 -7.957031 9.101562 -8.535156 8.78125 -8.890625 C 8.46875 -9.253906 7.972656 -9.4375 7.296875 -9.4375 C 6.484375 -9.4375 5.832031 -9.160156 5.34375 -8.609375 C 4.863281 -8.066406 4.625 -7.21875 4.625 -6.0625 L 4.625 0 Z M 1.6875 0 "/></g></g></g><g fill="#000000" fill-opacity="1"><g transform="translate(62.565652, 26.647734)"><g><path d="M 11.5625 -5.1875 L 4.046875 -5.1875 C 4.128906 -4.164062 4.414062 -3.421875 4.90625 -2.953125 C 5.40625 -2.492188 6.082031 -2.265625 6.9375 -2.265625 C 7.613281 -2.265625 8.160156 -2.390625 8.578125 -2.640625 C 8.992188 -2.898438 9.328125 -3.28125 9.578125 -3.78125 L 9.8125 -3.78125 L 11.765625 -2.53125 C 11.378906 -1.71875 10.800781 -1.054688 10.03125 -0.546875 C 9.257812 -0.0351562 8.226562 0.21875 6.9375 0.21875 C 5.726562 0.21875 4.679688 -0.0078125 3.796875 -0.46875 C 2.921875 -0.925781 2.242188 -1.609375 1.765625 -2.515625 C 1.285156 -3.429688 1.046875 -4.539062 1.046875 -5.84375 C 1.046875 -7.175781 1.296875 -8.296875 1.796875 -9.203125 C 2.304688 -10.117188 2.988281 -10.800781 3.84375 -11.25 C 4.695312 -11.695312 5.660156 -11.921875 6.734375 -11.921875 C 8.390625 -11.921875 9.65625 -11.484375 10.53125 -10.609375 C 11.414062 -9.734375 11.859375 -8.445312 11.859375 -6.75 C 11.859375 -6.132812 11.835938 -5.65625 11.796875 -5.3125 Z M 9.046875 -7.09375 C 9.015625 -7.976562 8.804688 -8.625 8.421875 -9.03125 C 8.035156 -9.4375 7.472656 -9.640625 6.734375 -9.640625 C 5.242188 -9.640625 4.367188 -8.789062 4.109375 -7.09375 Z M 9.046875 -7.09375 "/></g></g></g><g fill="#000000" fill-opacity="1"><g transform="translate(75.288419, 26.647734)"><g/></g></g><g fill="#000000" fill-opacity="1"><g transform="translate(80.413604, 26.647734)"><g><path d="M 6.875 0.21875 C 5.800781 0.21875 4.84375 0.0859375 4 -0.171875 C 3.164062 -0.441406 2.46875 -0.789062 1.90625 -1.21875 C 1.351562 -1.65625 0.925781 -2.128906 0.625 -2.640625 L 2.3125 -4.703125 L 2.578125 -4.703125 C 3.046875 -4.003906 3.640625 -3.453125 4.359375 -3.046875 C 5.078125 -2.640625 5.914062 -2.4375 6.875 -2.4375 C 7.695312 -2.4375 8.316406 -2.609375 8.734375 -2.953125 C 9.148438 -3.296875 9.359375 -3.773438 9.359375 -4.390625 C 9.359375 -4.753906 9.289062 -5.054688 9.15625 -5.296875 C 9.019531 -5.546875 8.796875 -5.757812 8.484375 -5.9375 C 8.171875 -6.113281 7.753906 -6.269531 7.234375 -6.40625 L 5.234375 -6.859375 C 3.835938 -7.171875 2.796875 -7.695312 2.109375 -8.4375 C 1.429688 -9.175781 1.09375 -10.140625 1.09375 -11.328125 C 1.09375 -12.203125 1.3125 -12.972656 1.75 -13.640625 C 2.1875 -14.304688 2.820312 -14.820312 3.65625 -15.1875 C 4.5 -15.550781 5.503906 -15.734375 6.671875 -15.734375 C 7.867188 -15.734375 8.894531 -15.578125 9.75 -15.265625 C 10.601562 -14.953125 11.320312 -14.46875 11.90625 -13.8125 L 10.390625 -11.734375 L 10.125 -11.734375 C 9.6875 -12.191406 9.179688 -12.535156 8.609375 -12.765625 C 8.046875 -12.992188 7.398438 -13.109375 6.671875 -13.109375 C 5.828125 -13.109375 5.1875 -12.957031 4.75 -12.65625 C 4.3125 -12.363281 4.09375 -11.957031 4.09375 -11.4375 C 4.09375 -10.945312 4.242188 -10.554688 4.546875 -10.265625 C 4.859375 -9.984375 5.394531 -9.757812 6.15625 -9.59375 L 8.1875 -9.171875 C 9.695312 -8.847656 10.789062 -8.304688 11.46875 -7.546875 C 12.144531 -6.785156 12.484375 -5.796875 12.484375 -4.578125 C 12.484375 -3.609375 12.273438 -2.765625 11.859375 -2.046875 C 11.441406 -1.328125 10.8125 -0.769531 9.96875 -0.375 C 9.132812 0.0195312 8.101562 0.21875 6.875 0.21875 Z M 6.875 0.21875 "/></g></g></g><g fill="#000000" fill-opacity="1"><g transform="translate(93.741207, 26.647734)"><g><path d="M 8.078125 -2.796875 L 8.84375 -0.609375 C 8.519531 -0.347656 8.117188 -0.144531 7.640625 0 C 7.160156 0.144531 6.613281 0.21875 6 0.21875 C 4.738281 0.21875 3.78125 -0.125 3.125 -0.8125 C 2.46875 -1.5 2.140625 -2.503906 2.140625 -3.828125 L 2.140625 -9.375 L 0.34375 -9.375 L 0.34375 -11.71875 L 2.140625 -11.71875 L 2.140625 -14 L 5.078125 -14.46875 L 5.078125 -11.71875 L 8.390625 -11.71875 L 8.390625 -9.375 L 5.078125 -9.375 L 5.078125 -4.03125 C 5.078125 -3.445312 5.195312 -3.019531 5.4375 -2.75 C 5.675781 -2.488281 6.023438 -2.359375 6.484375 -2.359375 C 7.003906 -2.359375 7.460938 -2.503906 7.859375 -2.796875 Z M 8.078125 -2.796875 "/></g></g></g><g fill="#000000" fill-opacity="1"><g transform="translate(102.834961, 26.647734)"><g><path d="M 5.359375 0.21875 C 4.046875 0.21875 3.070312 -0.140625 2.4375 -0.859375 C 1.8125 -1.578125 1.5 -2.609375 1.5 -3.953125 L 1.5 -11.703125 L 4.453125 -11.703125 L 4.453125 -4.3125 C 4.453125 -3.601562 4.601562 -3.082031 4.90625 -2.75 C 5.21875 -2.425781 5.691406 -2.265625 6.328125 -2.265625 C 7.148438 -2.265625 7.785156 -2.53125 8.234375 -3.0625 C 8.691406 -3.59375 8.921875 -4.429688 8.921875 -5.578125 L 8.921875 -11.703125 L 11.859375 -11.703125 L 11.859375 0 L 9.03125 0 L 9.03125 -1.71875 L 8.8125 -1.765625 C 8.4375 -1.097656 7.976562 -0.597656 7.4375 -0.265625 C 6.894531 0.0546875 6.203125 0.21875 5.359375 0.21875 Z M 5.359375 0.21875 "/></g></g></g><g fill="#000000" fill-opacity="1"><g transform="translate(116.374787, 26.647734)"><g><path d="M 5.78125 0.21875 C 4.851562 0.21875 4.035156 -0.00390625 3.328125 -0.453125 C 2.617188 -0.898438 2.0625 -1.578125 1.65625 -2.484375 C 1.25 -3.398438 1.046875 -4.519531 1.046875 -5.84375 C 1.046875 -7.1875 1.253906 -8.3125 1.671875 -9.21875 C 2.085938 -10.125 2.660156 -10.800781 3.390625 -11.25 C 4.117188 -11.695312 4.96875 -11.921875 5.9375 -11.921875 C 6.664062 -11.921875 7.296875 -11.796875 7.828125 -11.546875 C 8.359375 -11.296875 8.8125 -10.90625 9.1875 -10.375 L 9.40625 -10.4375 L 9.40625 -16.40625 L 12.34375 -16.40625 L 12.34375 0 L 9.40625 0 L 9.40625 -1.515625 L 9.1875 -1.5625 C 8.851562 -1.007812 8.40625 -0.570312 7.84375 -0.25 C 7.28125 0.0625 6.59375 0.21875 5.78125 0.21875 Z M 6.734375 -2.265625 C 7.566406 -2.265625 8.222656 -2.5625 8.703125 -3.15625 C 9.179688 -3.75 9.421875 -4.644531 9.421875 -5.84375 C 9.421875 -7.050781 9.179688 -7.953125 8.703125 -8.546875 C 8.222656 -9.140625 7.566406 -9.4375 6.734375 -9.4375 C 5.867188 -9.4375 5.207031 -9.144531 4.75 -8.5625 C 4.300781 -7.988281 4.078125 -7.082031 4.078125 -5.84375 C 4.078125 -4.613281 4.300781 -3.707031 4.75 -3.125 C 5.207031 -2.550781 5.867188 -2.265625 6.734375 -2.265625 Z M 6.734375 -2.265625 "/></g></g></g><g fill="#000000" fill-opacity="1"><g transform="translate(130.402726, 26.647734)"><g><path d="M 2.59375 4.96875 C 2.09375 4.96875 1.632812 4.925781 1.21875 4.84375 C 0.8125 4.769531 0.484375 4.671875 0.234375 4.546875 L 0.703125 2.171875 L 0.890625 2.09375 C 1.066406 2.1875 1.285156 2.257812 1.546875 2.3125 C 1.804688 2.375 2.078125 2.40625 2.359375 2.40625 C 2.828125 2.40625 3.21875 2.34375 3.53125 2.21875 C 3.851562 2.09375 4.125 1.882812 4.34375 1.59375 C 4.5625 1.3125 4.753906 0.914062 4.921875 0.40625 L 0.25 -11.703125 L 3.328125 -11.703125 L 6.234375 -3.5625 L 6.5 -3.5625 L 9.328125 -11.703125 L 12.328125 -11.703125 L 7.625 0.734375 C 7.25 1.734375 6.832031 2.539062 6.375 3.15625 C 5.925781 3.769531 5.394531 4.222656 4.78125 4.515625 C 4.175781 4.816406 3.445312 4.96875 2.59375 4.96875 Z M 2.59375 4.96875 "/></g></g></g><g fill="#000000" fill-opacity="1"><g transform="translate(142.966326, 26.647734)"><g><path d="M 3.15625 -13.109375 C 2.625 -13.109375 2.191406 -13.269531 1.859375 -13.59375 C 1.523438 -13.914062 1.359375 -14.332031 1.359375 -14.84375 C 1.359375 -15.34375 1.523438 -15.753906 1.859375 -16.078125 C 2.191406 -16.398438 2.625 -16.5625 3.15625 -16.5625 C 3.507812 -16.5625 3.820312 -16.484375 4.09375 -16.328125 C 4.375 -16.179688 4.585938 -15.976562 4.734375 -15.71875 C 4.890625 -15.457031 4.96875 -15.164062 4.96875 -14.84375 C 4.96875 -14.507812 4.890625 -14.207031 4.734375 -13.9375 C 4.585938 -13.675781 4.375 -13.472656 4.09375 -13.328125 C 3.820312 -13.179688 3.507812 -13.109375 3.15625 -13.109375 Z M 1.6875 0 L 1.6875 -11.703125 L 4.625 -11.703125 L 4.625 0 Z M 1.6875 0 "/></g></g></g><g fill="#000000" fill-opacity="1"><g transform="translate(149.269348, 26.647734)"><g><path d="M 1.6875 0 L 1.6875 -11.703125 L 4.515625 -11.703125 L 4.515625 -9.984375 L 4.734375 -9.9375 C 5.460938 -11.257812 6.644531 -11.921875 8.28125 -11.921875 C 9.632812 -11.921875 10.625 -11.550781 11.25 -10.8125 C 11.882812 -10.082031 12.203125 -9.015625 12.203125 -7.609375 L 12.203125 0 L 9.265625 0 L 9.265625 -7.25 C 9.265625 -8.03125 9.109375 -8.585938 8.796875 -8.921875 C 8.484375 -9.265625 7.984375 -9.4375 7.296875 -9.4375 C 6.453125 -9.4375 5.796875 -9.164062 5.328125 -8.625 C 4.859375 -8.082031 4.625 -7.226562 4.625 -6.0625 L 4.625 0 Z M 1.6875 0 "/></g></g></g><g fill="#000000" fill-opacity="1"><g transform="translate(162.978952, 26.647734)"><g><path d="M 6.078125 4.96875 C 4.140625 4.96875 2.707031 4.679688 1.78125 4.109375 C 0.863281 3.546875 0.40625 2.757812 0.40625 1.75 C 0.40625 1.132812 0.601562 0.628906 1 0.234375 C 1.394531 -0.148438 1.960938 -0.410156 2.703125 -0.546875 L 2.703125 -0.78125 C 2.296875 -1.019531 2.003906 -1.285156 1.828125 -1.578125 C 1.660156 -1.867188 1.578125 -2.207031 1.578125 -2.59375 C 1.578125 -3.539062 2.191406 -4.175781 3.421875 -4.5 L 3.421875 -4.71875 C 2.785156 -5.082031 2.304688 -5.53125 1.984375 -6.0625 C 1.671875 -6.59375 1.515625 -7.238281 1.515625 -8 C 1.515625 -8.78125 1.691406 -9.460938 2.046875 -10.046875 C 2.410156 -10.640625 2.9375 -11.097656 3.625 -11.421875 C 4.3125 -11.753906 5.140625 -11.921875 6.109375 -11.921875 C 7.078125 -11.921875 7.851562 -11.753906 8.4375 -11.421875 C 8.800781 -11.941406 9.007812 -12.546875 9.0625 -13.234375 L 9.28125 -13.375 L 11.390625 -12.859375 C 11.328125 -12.296875 11.164062 -11.820312 10.90625 -11.4375 C 10.644531 -11.0625 10.238281 -10.726562 9.6875 -10.4375 L 9.6875 -10.203125 C 10.34375 -9.617188 10.671875 -8.804688 10.671875 -7.765625 C 10.671875 -7.046875 10.488281 -6.398438 10.125 -5.828125 C 9.769531 -5.253906 9.25 -4.800781 8.5625 -4.46875 C 7.875 -4.132812 7.054688 -3.96875 6.109375 -3.96875 L 5.65625 -3.984375 C 5.375 -3.992188 5.175781 -4 5.0625 -4 C 4.789062 -4 4.578125 -3.925781 4.421875 -3.78125 C 4.273438 -3.632812 4.203125 -3.445312 4.203125 -3.21875 C 4.203125 -2.976562 4.300781 -2.785156 4.5 -2.640625 C 4.695312 -2.503906 4.988281 -2.429688 5.375 -2.421875 L 7.984375 -2.328125 C 10.578125 -2.242188 11.875 -1.128906 11.875 1.015625 C 11.875 1.773438 11.679688 2.445312 11.296875 3.03125 C 10.910156 3.625 10.285156 4.09375 9.421875 4.4375 C 8.554688 4.789062 7.441406 4.96875 6.078125 4.96875 Z M 6.109375 -6.03125 C 6.671875 -6.03125 7.109375 -6.195312 7.421875 -6.53125 C 7.742188 -6.863281 7.90625 -7.335938 7.90625 -7.953125 C 7.90625 -8.566406 7.742188 -9.035156 7.421875 -9.359375 C 7.109375 -9.691406 6.671875 -9.859375 6.109375 -9.859375 C 5.535156 -9.859375 5.09375 -9.691406 4.78125 -9.359375 C 4.46875 -9.035156 4.3125 -8.566406 4.3125 -7.953125 C 4.3125 -7.328125 4.46875 -6.847656 4.78125 -6.515625 C 5.09375 -6.191406 5.535156 -6.03125 6.109375 -6.03125 Z M 6.078125 2.828125 C 7.078125 2.828125 7.804688 2.6875 8.265625 2.40625 C 8.722656 2.125 8.953125 1.757812 8.953125 1.3125 C 8.953125 0.9375 8.832031 0.660156 8.59375 0.484375 C 8.363281 0.316406 7.992188 0.226562 7.484375 0.21875 L 5.171875 0.109375 C 5.085938 0.109375 5.007812 0.101562 4.9375 0.09375 C 4.875 0.0820312 4.8125 0.078125 4.75 0.078125 C 4.257812 0.078125 3.882812 0.179688 3.625 0.390625 C 3.363281 0.609375 3.234375 0.90625 3.234375 1.28125 C 3.234375 1.78125 3.46875 2.160156 3.9375 2.421875 C 4.414062 2.691406 5.128906 2.828125 6.078125 2.828125 Z M 6.078125 2.828125 "/></g></g></g><g fill="#000000" fill-opacity="1"><g transform="translate(175.14994, 26.647734)"><g/></g></g><g fill="#000000" fill-opacity="1"><g transform="translate(180.275124, 26.647734)"><g><path d="M 14.890625 0 L 11.65625 0 L 10.5 -3.578125 L 4.546875 -3.578125 L 3.390625 0 L 0.234375 0 L 5.59375 -15.515625 L 9.53125 -15.515625 Z M 7.375 -12.28125 L 5.375 -6.15625 L 9.640625 -6.15625 L 7.640625 -12.28125 Z M 7.375 -12.28125 "/></g></g></g><g fill="#000000" fill-opacity="1"><g transform="translate(195.396011, 26.647734)"><g><path d="M 1.6875 4.75 L 1.6875 -11.703125 L 4.625 -11.703125 L 4.625 -10.171875 L 4.84375 -10.140625 C 5.195312 -10.734375 5.660156 -11.175781 6.234375 -11.46875 C 6.816406 -11.769531 7.5 -11.921875 8.28125 -11.921875 C 9.21875 -11.921875 10.035156 -11.695312 10.734375 -11.25 C 11.441406 -10.8125 11.992188 -10.132812 12.390625 -9.21875 C 12.785156 -8.3125 12.984375 -7.1875 12.984375 -5.84375 C 12.984375 -4.507812 12.773438 -3.390625 12.359375 -2.484375 C 11.941406 -1.578125 11.363281 -0.898438 10.625 -0.453125 C 9.894531 -0.00390625 9.050781 0.21875 8.09375 0.21875 C 7.363281 0.21875 6.734375 0.0976562 6.203125 -0.140625 C 5.671875 -0.390625 5.21875 -0.769531 4.84375 -1.28125 L 4.625 -1.234375 L 4.625 4.75 Z M 7.265625 -2.265625 C 8.140625 -2.265625 8.800781 -2.550781 9.25 -3.125 C 9.707031 -3.695312 9.9375 -4.601562 9.9375 -5.84375 C 9.9375 -7.082031 9.707031 -7.988281 9.25 -8.5625 C 8.800781 -9.144531 8.140625 -9.4375 7.265625 -9.4375 C 6.441406 -9.4375 5.789062 -9.140625 5.3125 -8.546875 C 4.832031 -7.953125 4.59375 -7.050781 4.59375 -5.84375 C 4.59375 -4.644531 4.832031 -3.75 5.3125 -3.15625 C 5.789062 -2.5625 6.441406 -2.265625 7.265625 -2.265625 Z M 7.265625 -2.265625 "/></g></g></g><g fill="#000000" fill-opacity="1"><g transform="translate(209.413339, 26.647734)"><g><path d="M 1.6875 4.75 L 1.6875 -11.703125 L 4.625 -11.703125 L 4.625 -10.171875 L 4.84375 -10.140625 C 5.195312 -10.734375 5.660156 -11.175781 6.234375 -11.46875 C 6.816406 -11.769531 7.5 -11.921875 8.28125 -11.921875 C 9.21875 -11.921875 10.035156 -11.695312 10.734375 -11.25 C 11.441406 -10.8125 11.992188 -10.132812 12.390625 -9.21875 C 12.785156 -8.3125 12.984375 -7.1875 12.984375 -5.84375 C 12.984375 -4.507812 12.773438 -3.390625 12.359375 -2.484375 C 11.941406 -1.578125 11.363281 -0.898438 10.625 -0.453125 C 9.894531 -0.00390625 9.050781 0.21875 8.09375 0.21875 C 7.363281 0.21875 6.734375 0.0976562 6.203125 -0.140625 C 5.671875 -0.390625 5.21875 -0.769531 4.84375 -1.28125 L 4.625 -1.234375 L 4.625 4.75 Z M 7.265625 -2.265625 C 8.140625 -2.265625 8.800781 -2.550781 9.25 -3.125 C 9.707031 -3.695312 9.9375 -4.601562 9.9375 -5.84375 C 9.9375 -7.082031 9.707031 -7.988281 9.25 -8.5625 C 8.800781 -9.144531 8.140625 -9.4375 7.265625 -9.4375 C 6.441406 -9.4375 5.789062 -9.140625 5.3125 -8.546875 C 4.832031 -7.953125 4.59375 -7.050781 4.59375 -5.84375 C 4.59375 -4.644531 4.832031 -3.75 5.3125 -3.15625 C 5.789062 -2.5625 6.441406 -2.265625 7.265625 -2.265625 Z M 7.265625 -2.265625 "/></g></g></g></svg>