<svg xmlns="http://www.w3.org/2000/svg" xmlns:xlink="http://www.w3.org/1999/xlink" width="300" zoomAndPan="magnify" viewBox="0 0 224.87999 37.5" height="50" preserveAspectRatio="xMidYMid meet" version="1.0"><defs><g/><clipPath id="a54cd0fdb2"><path d="M 3 1.476562 L 38 1.476562 L 38 21 L 3 21 Z M 3 1.476562 " clip-rule="nonzero"/></clipPath><clipPath id="cfa178597d"><path d="M 15 21 L 42 21 L 42 33.300781 L 15 33.300781 Z M 15 21 " clip-rule="nonzero"/></clipPath></defs><path fill="#e6eff4" d="M 32.476562 2.546875 L 34.714844 2.902344 L 35.929688 8.53125 L 35.289062 9.792969 L 7.546875 19.625 C 8.699219 14.417969 4.542969 8.140625 4.542969 8.140625 Z M 11.84375 22.050781 C 11.96875 22.050781 15.335938 25.675781 15.847656 27.269531 L 39.03125 14.589844 C 39.03125 14.589844 40.011719 11.011719 37.625 10.664062 C 35.238281 10.320312 11.84375 21.835938 11.84375 21.835938 M 15.976562 29.425781 C 16.101562 29.425781 16.65625 31.195312 16.65625 32.273438 L 40.285156 24.378906 C 40.285156 24.378906 42.035156 23.863281 41.160156 22.742188 C 40.285156 21.621094 38.859375 21.878906 37.582031 22.265625 C 36.300781 22.652344 15.976562 29.425781 15.976562 29.425781 Z M 15.976562 29.425781 " fill-opacity="1" fill-rule="nonzero"/><g clip-path="url(#a54cd0fdb2)"><path fill="#e87b69" d="M 32.511719 3.246094 C 32.511719 3.246094 25.179688 4.625 20.875 5.488281 C 16.574219 6.351562 4 9.328125 3.445312 9.023438 C 2.890625 8.722656 2.933594 7.988281 4.808594 7.6875 C 6.683594 7.386719 27.054688 3.117188 30.761719 2.296875 C 34.472656 1.476562 35.28125 1.824219 36.175781 4.539062 C 37.070312 7.257812 37.667969 9.199219 35.75 9.886719 C 33.832031 10.578125 8.433594 20.28125 7.195312 20.585938 C 5.960938 20.886719 5.40625 20.152344 6.941406 19.289062 C 8.476562 18.429688 24.707031 13.179688 28.085938 11.808594 C 32.296875 10.105469 35.921875 10.191406 35.238281 6.957031 C 34.554688 3.722656 34.554688 2.859375 32.511719 3.246094 Z M 32.511719 3.246094 " fill-opacity="1" fill-rule="nonzero"/></g><path fill="#f6b737" d="M 10.820312 22.007812 C 10.820312 22.007812 25.324219 14.894531 30.25 12.777344 C 34.144531 11.105469 36.773438 9.242188 38.730469 10.664062 C 40.691406 12.089844 40.691406 13.855469 39.328125 14.804688 C 37.964844 15.753906 17.023438 27.722656 15.761719 28.175781 C 15.039062 28.433594 14.3125 27.832031 16.148438 26.710938 C 17.980469 25.585938 36.261719 15.625 37.710938 14.503906 C 39.160156 13.382812 39.414062 11.679688 37.625 11.28125 C 35.835938 10.878906 12.3125 22.308594 11.628906 22.785156 C 10.949219 23.257812 10.308594 22.609375 10.820312 22.007812 Z M 10.820312 22.007812 " fill-opacity="1" fill-rule="nonzero"/><g clip-path="url(#cfa178597d)"><path fill="#80a3ff" d="M 15.019531 29.484375 C 15.035156 29.273438 15.191406 29.09375 15.390625 29.027344 C 17.019531 28.492188 26.523438 25.367188 30.761719 23.992188 C 35.40625 22.480469 38.96875 21.230469 40.285156 21.617188 C 41.605469 22.007812 42.097656 23.558594 41.246094 24.25 C 40.394531 24.941406 16.742188 33.300781 16.316406 33.109375 C 15.890625 32.917969 15.25 32.226562 16.484375 31.925781 C 17.722656 31.625 37.070312 25.15625 38.175781 24.765625 C 39.285156 24.378906 41.035156 23.929688 40.285156 22.738281 C 39.539062 21.550781 30.039062 25.113281 28.289062 25.628906 C 26.542969 26.148438 16.292969 29.769531 15.78125 29.855469 C 15.382812 29.925781 14.988281 29.851562 15.019531 29.484375 Z M 15.019531 29.484375 " fill-opacity="1" fill-rule="nonzero"/></g><path fill="#01070a" d="M 11.15625 9.472656 C 9.527344 9.878906 7.898438 10.289062 6.273438 10.703125 C 6.230469 10.714844 6.089844 10.738281 6.070312 10.667969 C 6.050781 10.59375 6.179688 10.546875 6.230469 10.535156 C 6.429688 10.484375 6.632812 10.433594 6.832031 10.382812 C 8.460938 9.972656 10.089844 9.5625 11.714844 9.152344 C 13.351562 8.742188 14.988281 8.335938 16.628906 7.929688 C 18.257812 7.527344 19.886719 7.125 21.515625 6.722656 C 23.144531 6.324219 24.777344 5.925781 26.40625 5.53125 C 27.222656 5.332031 28.039062 5.136719 28.855469 4.941406 C 29.664062 4.746094 30.472656 4.523438 31.289062 4.386719 C 31.417969 4.363281 31.371094 4.460938 31.289062 4.484375 C 31.089844 4.546875 30.890625 4.609375 30.6875 4.660156 C 29.058594 5.0625 27.429688 5.453125 25.796875 5.851562 C 24.167969 6.25 22.535156 6.648438 20.90625 7.050781 C 19.285156 7.449219 17.664062 7.851562 16.042969 8.253906 C 14.414062 8.65625 12.785156 9.0625 11.15625 9.472656 Z M 9.460938 11.273438 C 10.269531 11.039062 11.078125 10.808594 11.890625 10.582031 C 13.503906 10.125 15.121094 9.675781 16.738281 9.234375 C 18.355469 8.792969 19.972656 8.363281 21.597656 7.9375 C 23.21875 7.511719 24.839844 7.089844 26.464844 6.679688 C 28.082031 6.269531 29.703125 5.867188 31.320312 5.46875 C 31.527344 5.417969 31.734375 5.363281 31.9375 5.308594 C 31.980469 5.292969 32.058594 5.253906 32.042969 5.195312 C 32.027344 5.136719 31.941406 5.144531 31.898438 5.152344 C 31.078125 5.320312 30.269531 5.53125 29.460938 5.730469 C 28.644531 5.929688 27.824219 6.128906 27.007812 6.332031 C 25.378906 6.738281 23.757812 7.152344 22.132812 7.574219 C 20.511719 7.996094 18.890625 8.425781 17.273438 8.863281 C 15.652344 9.304688 14.039062 9.75 12.421875 10.203125 C 10.820312 10.65625 9.203125 11.089844 7.613281 11.589844 C 7.414062 11.652344 7.222656 11.71875 7.03125 11.800781 C 6.945312 11.835938 6.96875 11.933594 7.0625 11.917969 C 7.875 11.773438 8.667969 11.5 9.460938 11.273438 Z M 12.195312 12.222656 C 13.855469 11.699219 15.519531 11.183594 17.191406 10.683594 C 18.867188 10.179688 20.546875 9.6875 22.230469 9.207031 C 23.90625 8.726562 25.582031 8.257812 27.265625 7.804688 C 28.945312 7.351562 30.625 6.890625 32.3125 6.457031 C 32.527344 6.402344 32.738281 6.347656 32.949219 6.292969 C 33.097656 6.253906 33.054688 6.101562 32.90625 6.136719 C 31.210938 6.558594 29.511719 6.984375 27.820312 7.433594 C 26.136719 7.878906 24.457031 8.34375 22.78125 8.816406 C 21.09375 9.289062 19.414062 9.777344 17.734375 10.277344 C 16.066406 10.773438 14.398438 11.28125 12.734375 11.800781 C 11.0625 12.324219 9.394531 12.859375 7.734375 13.410156 C 7.527344 13.476562 7.324219 13.554688 7.125 13.628906 C 6.953125 13.691406 7.066406 13.859375 7.214844 13.816406 C 8.054688 13.574219 8.882812 13.285156 9.714844 13.015625 C 10.542969 12.75 11.367188 12.484375 12.195312 12.222656 Z M 32.503906 7.597656 C 30.9375 8.035156 29.375 8.492188 27.8125 8.945312 C 26.253906 9.402344 24.691406 9.859375 23.132812 10.320312 C 21.570312 10.777344 20.007812 11.230469 18.449219 11.6875 C 16.886719 12.144531 15.324219 12.605469 13.765625 13.070312 C 12.207031 13.535156 10.648438 14 9.089844 14.46875 C 8.894531 14.527344 8.695312 14.59375 8.5 14.660156 C 8.453125 14.675781 8.347656 14.714844 8.367188 14.78125 C 8.386719 14.847656 8.496094 14.832031 8.542969 14.820312 C 9.328125 14.617188 10.105469 14.367188 10.882812 14.132812 C 11.660156 13.902344 12.441406 13.667969 13.21875 13.433594 C 14.78125 12.96875 16.339844 12.503906 17.898438 12.039062 C 19.457031 11.574219 21.011719 11.105469 22.574219 10.644531 C 24.136719 10.183594 25.695312 9.726562 27.257812 9.269531 C 28.816406 8.8125 30.382812 8.363281 31.941406 7.894531 C 32.136719 7.835938 32.335938 7.773438 32.535156 7.714844 C 32.570312 7.707031 32.644531 7.675781 32.628906 7.628906 C 32.617188 7.578125 32.535156 7.589844 32.503906 7.597656 Z M 10.832031 15.429688 C 11.667969 15.179688 12.5 14.933594 13.335938 14.683594 C 14.996094 14.191406 16.65625 13.699219 18.320312 13.207031 C 19.980469 12.710938 21.640625 12.21875 23.304688 11.722656 C 24.945312 11.234375 26.585938 10.75 28.226562 10.257812 C 29.824219 9.777344 31.417969 9.277344 32.964844 8.644531 C 33.15625 8.5625 33.351562 8.484375 33.542969 8.402344 C 33.585938 8.382812 33.648438 8.34375 33.617188 8.292969 C 33.585938 8.242188 33.472656 8.273438 33.4375 8.289062 C 31.894531 8.925781 30.304688 9.433594 28.710938 9.917969 C 27.078125 10.410156 25.441406 10.890625 23.808594 11.375 C 22.15625 11.863281 20.5 12.355469 18.847656 12.847656 C 17.195312 13.339844 15.542969 13.828125 13.886719 14.320312 C 12.234375 14.8125 10.578125 15.289062 8.929688 15.796875 C 8.722656 15.859375 8.527344 15.925781 8.328125 16.007812 C 8.222656 16.050781 8.242188 16.148438 8.359375 16.128906 C 8.78125 16.050781 9.191406 15.917969 9.605469 15.796875 C 10.015625 15.671875 10.421875 15.550781 10.832031 15.429688 Z M 23.503906 12.601562 C 24.871094 12.121094 26.230469 11.628906 27.59375 11.148438 C 27.632812 11.136719 27.707031 11.105469 27.691406 11.050781 C 27.679688 11 27.59375 11 27.558594 11.011719 C 25.113281 11.832031 22.679688 12.667969 20.253906 13.539062 C 17.84375 14.402344 15.441406 15.28125 13.042969 16.179688 C 12.371094 16.429688 11.699219 16.683594 11.03125 16.9375 C 10.695312 17.0625 10.363281 17.191406 10.03125 17.320312 C 9.6875 17.453125 9.355469 17.609375 9.019531 17.753906 C 8.921875 17.796875 8.984375 17.882812 9.070312 17.855469 C 9.386719 17.75 9.703125 17.65625 10.011719 17.542969 C 10.308594 17.429688 10.609375 17.320312 10.90625 17.207031 C 11.496094 16.984375 12.089844 16.761719 12.683594 16.539062 C 13.882812 16.089844 15.082031 15.644531 16.285156 15.203125 C 18.683594 14.320312 21.09375 13.453125 23.503906 12.601562 Z M 17.410156 21.304688 C 18.734375 20.648438 20.066406 20 21.394531 19.351562 C 22.726562 18.703125 24.058594 18.0625 25.390625 17.421875 C 26.730469 16.78125 28.070312 16.140625 29.410156 15.503906 C 30.734375 14.871094 32.058594 14.230469 33.390625 13.609375 C 33.558594 13.527344 33.726562 13.449219 33.894531 13.371094 C 33.925781 13.355469 33.945312 13.335938 33.914062 13.3125 C 33.886719 13.289062 33.808594 13.324219 33.78125 13.335938 C 32.421875 13.964844 31.0625 14.582031 29.703125 15.214844 C 28.359375 15.839844 27.019531 16.472656 25.679688 17.113281 C 24.34375 17.75 23.011719 18.390625 21.679688 19.039062 C 20.339844 19.6875 19.003906 20.339844 17.667969 20.996094 C 16.34375 21.648438 15.015625 22.304688 13.691406 22.96875 C 13.527344 23.050781 13.363281 23.132812 13.203125 23.21875 C 13.160156 23.242188 13.097656 23.292969 13.164062 23.324219 C 13.230469 23.355469 13.34375 23.3125 13.402344 23.285156 C 14.078125 22.96875 14.742188 22.625 15.410156 22.292969 C 16.078125 21.960938 16.742188 21.632812 17.410156 21.304688 Z M 18.027344 22.285156 C 19.378906 21.59375 20.738281 20.910156 22.09375 20.230469 C 23.480469 19.539062 24.871094 18.851562 26.261719 18.167969 C 27.632812 17.492188 29.003906 16.824219 30.378906 16.160156 C 31.691406 15.53125 33.003906 14.910156 34.316406 14.285156 C 34.476562 14.210938 34.632812 14.136719 34.789062 14.0625 C 34.828125 14.042969 34.902344 14 34.867188 13.949219 C 34.832031 13.902344 34.71875 13.929688 34.679688 13.949219 C 33.363281 14.550781 32.054688 15.171875 30.746094 15.796875 C 29.375 16.453125 28.003906 17.113281 26.636719 17.78125 C 25.242188 18.460938 23.851562 19.148438 22.460938 19.839844 C 21.089844 20.523438 19.714844 21.214844 18.347656 21.914062 C 17.050781 22.574219 15.757812 23.238281 14.464844 23.910156 C 14.3125 23.988281 14.160156 24.070312 14.007812 24.15625 C 13.964844 24.179688 13.921875 24.230469 13.96875 24.273438 C 14.015625 24.3125 14.125 24.292969 14.171875 24.265625 C 14.8125 23.953125 15.441406 23.613281 16.078125 23.285156 C 16.726562 22.949219 17.375 22.617188 18.027344 22.285156 Z M 19.214844 23.152344 C 20.59375 22.449219 21.964844 21.734375 23.332031 21.007812 C 24.710938 20.273438 26.082031 19.535156 27.453125 18.789062 C 28.816406 18.046875 30.171875 17.300781 31.53125 16.554688 C 32.859375 15.824219 34.191406 15.09375 35.515625 14.359375 C 35.671875 14.269531 35.832031 14.183594 35.984375 14.089844 C 36.097656 14.023438 35.921875 14.03125 35.871094 14.054688 C 35.191406 14.394531 34.527344 14.765625 33.859375 15.132812 C 33.191406 15.496094 32.527344 15.859375 31.859375 16.226562 C 30.503906 16.96875 29.148438 17.707031 27.792969 18.445312 C 26.421875 19.191406 25.050781 19.933594 23.671875 20.667969 C 22.308594 21.394531 20.941406 22.113281 19.566406 22.816406 C 18.21875 23.511719 16.859375 24.191406 15.492188 24.855469 C 15.332031 24.933594 15.171875 25.015625 15.011719 25.101562 C 14.976562 25.117188 14.9375 25.144531 14.972656 25.179688 C 15.003906 25.210938 15.109375 25.175781 15.140625 25.164062 C 15.832031 24.863281 16.503906 24.511719 17.179688 24.175781 C 17.863281 23.839844 18.539062 23.5 19.214844 23.152344 Z M 18.332031 24.660156 C 19.273438 24.136719 20.214844 23.613281 21.160156 23.09375 C 23.054688 22.058594 24.957031 21.035156 26.871094 20.039062 C 27.945312 19.480469 29.019531 18.925781 30.09375 18.371094 C 30.125 18.355469 30.148438 18.339844 30.117188 18.316406 C 30.089844 18.292969 30 18.328125 29.976562 18.339844 C 28.023438 19.304688 26.09375 20.3125 24.167969 21.332031 C 22.246094 22.347656 20.332031 23.382812 18.429688 24.441406 C 17.90625 24.730469 17.382812 25.027344 16.859375 25.320312 C 16.332031 25.621094 15.789062 25.910156 15.269531 26.234375 C 15.226562 26.261719 15.222656 26.292969 15.277344 26.304688 C 15.339844 26.320312 15.429688 26.292969 15.488281 26.261719 C 15.972656 26.007812 16.441406 25.726562 16.917969 25.457031 C 17.386719 25.191406 17.859375 24.925781 18.332031 24.660156 Z M 38.058594 23.097656 C 36.628906 23.492188 35.214844 23.929688 33.800781 24.363281 C 32.386719 24.796875 30.972656 25.242188 29.5625 25.691406 C 28.144531 26.144531 26.730469 26.605469 25.316406 27.070312 C 23.910156 27.535156 22.507812 28.011719 21.105469 28.492188 C 19.707031 28.976562 18.308594 29.464844 16.914062 29.964844 C 16.742188 30.027344 16.570312 30.089844 16.402344 30.160156 C 16.378906 30.171875 16.292969 30.203125 16.316406 30.246094 C 16.335938 30.285156 16.4375 30.261719 16.46875 30.25 C 17.171875 30.03125 17.863281 29.765625 18.558594 29.519531 C 19.257812 29.269531 19.960938 29.023438 20.664062 28.78125 C 22.0625 28.296875 23.460938 27.816406 24.867188 27.347656 C 26.261719 26.878906 27.660156 26.417969 29.0625 25.96875 C 30.472656 25.511719 31.886719 25.066406 33.300781 24.632812 C 34.714844 24.195312 36.132812 23.773438 37.546875 23.339844 C 37.726562 23.285156 37.902344 23.230469 38.078125 23.175781 C 38.097656 23.167969 38.183594 23.144531 38.171875 23.109375 C 38.164062 23.070312 38.074219 23.09375 38.058594 23.097656 Z M 37.847656 23.777344 C 36.484375 24.238281 35.125 24.699219 33.765625 25.160156 C 32.398438 25.621094 31.03125 26.074219 29.660156 26.519531 C 28.296875 26.957031 26.933594 27.394531 25.5625 27.8125 C 24.195312 28.234375 22.824219 28.648438 21.453125 29.058594 C 20.078125 29.46875 18.707031 29.875 17.332031 30.28125 C 17.164062 30.332031 16.996094 30.382812 16.824219 30.441406 C 16.800781 30.449219 16.742188 30.476562 16.757812 30.507812 C 16.773438 30.539062 16.855469 30.519531 16.878906 30.511719 C 17.570312 30.332031 18.253906 30.113281 18.9375 29.910156 C 19.625 29.703125 20.3125 29.5 20.996094 29.292969 C 22.375 28.882812 23.753906 28.460938 25.128906 28.039062 C 26.496094 27.613281 27.863281 27.1875 29.226562 26.746094 C 30.59375 26.304688 31.960938 25.847656 33.324219 25.394531 C 34.6875 24.9375 36.046875 24.472656 37.40625 24.007812 C 37.574219 23.949219 37.746094 23.890625 37.917969 23.832031 C 37.941406 23.824219 37.996094 23.800781 37.976562 23.769531 C 37.953125 23.742188 37.867188 23.769531 37.847656 23.777344 Z M 32.679688 26.078125 C 30.570312 26.675781 28.480469 27.34375 26.386719 27.992188 C 24.289062 28.640625 22.195312 29.296875 20.105469 29.960938 C 19.523438 30.144531 18.941406 30.328125 18.363281 30.511719 C 17.769531 30.699219 17.171875 30.875 16.585938 31.078125 C 16.558594 31.089844 16.476562 31.121094 16.5 31.160156 C 16.519531 31.195312 16.621094 31.171875 16.644531 31.164062 C 17.695312 30.863281 18.734375 30.511719 19.777344 30.179688 C 20.820312 29.851562 21.863281 29.523438 22.90625 29.195312 C 24.992188 28.539062 27.078125 27.882812 29.167969 27.238281 C 30.34375 26.875 31.527344 26.523438 32.699219 26.148438 C 32.714844 26.140625 32.800781 26.117188 32.789062 26.085938 C 32.777344 26.054688 32.699219 26.074219 32.679688 26.078125 Z M 32.679688 26.078125 " fill-opacity="1" fill-rule="nonzero"/><g fill="#000000" fill-opacity="1"><g transform="translate(42.42834, 24.96909)"><g><path d="M 11.359375 -14.171875 L 11.359375 -11.828125 L 7.265625 -11.828125 L 7.265625 0 L 4.484375 0 L 4.484375 -11.828125 L 0.390625 -11.828125 L 0.390625 -14.171875 Z M 11.359375 -14.171875 "/></g></g></g><g fill="#000000" fill-opacity="1"><g transform="translate(54.178936, 24.96909)"><g><path d="M 1.546875 0 L 1.546875 -14.984375 L 4.234375 -14.984375 L 4.234375 -9.296875 L 4.4375 -9.265625 C 4.789062 -9.785156 5.222656 -10.1875 5.734375 -10.46875 C 6.253906 -10.757812 6.878906 -10.90625 7.609375 -10.90625 C 9.972656 -10.90625 11.15625 -9.566406 11.15625 -6.890625 L 11.15625 0 L 8.46875 0 L 8.46875 -6.546875 C 8.46875 -7.273438 8.320312 -7.800781 8.03125 -8.125 C 7.738281 -8.457031 7.285156 -8.625 6.671875 -8.625 C 5.921875 -8.625 5.328125 -8.375 4.890625 -7.875 C 4.453125 -7.375 4.234375 -6.59375 4.234375 -5.53125 L 4.234375 0 Z M 1.546875 0 "/></g></g></g><g fill="#000000" fill-opacity="1"><g transform="translate(66.705149, 24.96909)"><g><path d="M 10.5625 -4.734375 L 3.6875 -4.734375 C 3.769531 -3.804688 4.035156 -3.128906 4.484375 -2.703125 C 4.941406 -2.285156 5.5625 -2.078125 6.34375 -2.078125 C 6.957031 -2.078125 7.453125 -2.191406 7.828125 -2.421875 C 8.210938 -2.648438 8.519531 -3 8.75 -3.46875 L 8.953125 -3.46875 L 10.75 -2.3125 C 10.394531 -1.5625 9.863281 -0.953125 9.15625 -0.484375 C 8.457031 -0.0234375 7.519531 0.203125 6.34375 0.203125 C 5.238281 0.203125 4.28125 -0.00390625 3.46875 -0.421875 C 2.664062 -0.847656 2.046875 -1.472656 1.609375 -2.296875 C 1.171875 -3.128906 0.953125 -4.144531 0.953125 -5.34375 C 0.953125 -6.5625 1.179688 -7.585938 1.640625 -8.421875 C 2.109375 -9.253906 2.734375 -9.875 3.515625 -10.28125 C 4.296875 -10.695312 5.171875 -10.90625 6.140625 -10.90625 C 7.660156 -10.90625 8.820312 -10.503906 9.625 -9.703125 C 10.425781 -8.898438 10.828125 -7.722656 10.828125 -6.171875 C 10.828125 -5.609375 10.804688 -5.171875 10.765625 -4.859375 Z M 8.265625 -6.484375 C 8.234375 -7.296875 8.039062 -7.882812 7.6875 -8.25 C 7.34375 -8.625 6.828125 -8.8125 6.140625 -8.8125 C 4.785156 -8.8125 3.988281 -8.035156 3.75 -6.484375 Z M 8.265625 -6.484375 "/></g></g></g><g fill="#000000" fill-opacity="1"><g transform="translate(78.329707, 24.96909)"><g/></g></g><g fill="#000000" fill-opacity="1"><g transform="translate(83.012494, 24.96909)"><g><path d="M 6.28125 0.203125 C 5.300781 0.203125 4.425781 0.0820312 3.65625 -0.15625 C 2.894531 -0.40625 2.257812 -0.722656 1.75 -1.109375 C 1.238281 -1.503906 0.847656 -1.941406 0.578125 -2.421875 L 2.109375 -4.296875 L 2.359375 -4.296875 C 2.785156 -3.660156 3.328125 -3.15625 3.984375 -2.78125 C 4.640625 -2.40625 5.40625 -2.21875 6.28125 -2.21875 C 7.03125 -2.21875 7.59375 -2.375 7.96875 -2.6875 C 8.351562 -3.007812 8.546875 -3.445312 8.546875 -4 C 8.546875 -4.34375 8.484375 -4.625 8.359375 -4.84375 C 8.242188 -5.070312 8.039062 -5.265625 7.75 -5.421875 C 7.46875 -5.585938 7.085938 -5.726562 6.609375 -5.84375 L 4.78125 -6.265625 C 3.507812 -6.554688 2.5625 -7.039062 1.9375 -7.71875 C 1.3125 -8.394531 1 -9.269531 1 -10.34375 C 1 -11.144531 1.195312 -11.847656 1.59375 -12.453125 C 2 -13.066406 2.582031 -13.539062 3.34375 -13.875 C 4.113281 -14.207031 5.03125 -14.375 6.09375 -14.375 C 7.1875 -14.375 8.125 -14.226562 8.90625 -13.9375 C 9.6875 -13.65625 10.34375 -13.21875 10.875 -12.625 L 9.5 -10.71875 L 9.25 -10.71875 C 8.851562 -11.144531 8.394531 -11.460938 7.875 -11.671875 C 7.351562 -11.878906 6.757812 -11.984375 6.09375 -11.984375 C 5.332031 -11.984375 4.75 -11.847656 4.34375 -11.578125 C 3.945312 -11.304688 3.75 -10.929688 3.75 -10.453125 C 3.75 -10.003906 3.890625 -9.644531 4.171875 -9.375 C 4.453125 -9.113281 4.9375 -8.910156 5.625 -8.765625 L 7.484375 -8.375 C 8.859375 -8.082031 9.851562 -7.585938 10.46875 -6.890625 C 11.09375 -6.203125 11.40625 -5.296875 11.40625 -4.171875 C 11.40625 -3.285156 11.210938 -2.515625 10.828125 -1.859375 C 10.453125 -1.203125 9.878906 -0.691406 9.109375 -0.328125 C 8.347656 0.0234375 7.40625 0.203125 6.28125 0.203125 Z M 6.28125 0.203125 "/></g></g></g><g fill="#000000" fill-opacity="1"><g transform="translate(95.18968, 24.96909)"><g><path d="M 7.375 -2.546875 L 8.078125 -0.5625 C 7.785156 -0.320312 7.421875 -0.132812 6.984375 0 C 6.546875 0.132812 6.046875 0.203125 5.484375 0.203125 C 4.328125 0.203125 3.445312 -0.109375 2.84375 -0.734375 C 2.25 -1.367188 1.953125 -2.285156 1.953125 -3.484375 L 1.953125 -8.578125 L 0.3125 -8.578125 L 0.3125 -10.703125 L 1.953125 -10.703125 L 1.953125 -12.796875 L 4.640625 -13.234375 L 4.640625 -10.703125 L 7.671875 -10.703125 L 7.671875 -8.578125 L 4.640625 -8.578125 L 4.640625 -3.6875 C 4.640625 -3.15625 4.75 -2.765625 4.96875 -2.515625 C 5.1875 -2.273438 5.503906 -2.15625 5.921875 -2.15625 C 6.398438 -2.15625 6.816406 -2.285156 7.171875 -2.546875 Z M 7.375 -2.546875 "/></g></g></g><g fill="#000000" fill-opacity="1"><g transform="translate(103.498476, 24.96909)"><g><path d="M 4.890625 0.203125 C 3.691406 0.203125 2.804688 -0.125 2.234375 -0.78125 C 1.660156 -1.4375 1.375 -2.378906 1.375 -3.609375 L 1.375 -10.703125 L 4.0625 -10.703125 L 4.0625 -3.953125 C 4.0625 -3.296875 4.203125 -2.816406 4.484375 -2.515625 C 4.765625 -2.210938 5.203125 -2.0625 5.796875 -2.0625 C 6.535156 -2.0625 7.109375 -2.304688 7.515625 -2.796875 C 7.929688 -3.285156 8.140625 -4.050781 8.140625 -5.09375 L 8.140625 -10.703125 L 10.828125 -10.703125 L 10.828125 0 L 8.25 0 L 8.25 -1.578125 L 8.046875 -1.625 C 7.703125 -1.007812 7.28125 -0.550781 6.78125 -0.25 C 6.289062 0.0507812 5.660156 0.203125 4.890625 0.203125 Z M 4.890625 0.203125 "/></g></g></g><g fill="#000000" fill-opacity="1"><g transform="translate(115.869566, 24.96909)"><g><path d="M 5.28125 0.203125 C 4.4375 0.203125 3.6875 0 3.03125 -0.40625 C 2.382812 -0.820312 1.875 -1.441406 1.5 -2.265625 C 1.132812 -3.097656 0.953125 -4.125 0.953125 -5.34375 C 0.953125 -6.5625 1.140625 -7.585938 1.515625 -8.421875 C 1.898438 -9.253906 2.425781 -9.875 3.09375 -10.28125 C 3.769531 -10.695312 4.546875 -10.90625 5.421875 -10.90625 C 6.085938 -10.90625 6.664062 -10.785156 7.15625 -10.546875 C 7.644531 -10.316406 8.054688 -9.960938 8.390625 -9.484375 L 8.59375 -9.53125 L 8.59375 -14.984375 L 11.28125 -14.984375 L 11.28125 0 L 8.59375 0 L 8.59375 -1.390625 L 8.390625 -1.421875 C 8.085938 -0.921875 7.675781 -0.523438 7.15625 -0.234375 C 6.644531 0.0546875 6.019531 0.203125 5.28125 0.203125 Z M 6.15625 -2.078125 C 6.914062 -2.078125 7.515625 -2.34375 7.953125 -2.875 C 8.390625 -3.414062 8.609375 -4.238281 8.609375 -5.34375 C 8.609375 -6.4375 8.390625 -7.253906 7.953125 -7.796875 C 7.515625 -8.347656 6.914062 -8.625 6.15625 -8.625 C 5.363281 -8.625 4.757812 -8.359375 4.34375 -7.828125 C 3.925781 -7.304688 3.71875 -6.476562 3.71875 -5.34375 C 3.71875 -4.21875 3.925781 -3.390625 4.34375 -2.859375 C 4.757812 -2.335938 5.363281 -2.078125 6.15625 -2.078125 Z M 6.15625 -2.078125 "/></g></g></g><g fill="#000000" fill-opacity="1"><g transform="translate(128.686635, 24.96909)"><g><path d="M 2.359375 4.53125 C 1.898438 4.53125 1.484375 4.492188 1.109375 4.421875 C 0.742188 4.359375 0.445312 4.269531 0.21875 4.15625 L 0.640625 1.984375 L 0.8125 1.921875 C 0.976562 2.003906 1.179688 2.070312 1.421875 2.125 C 1.660156 2.175781 1.90625 2.203125 2.15625 2.203125 C 2.582031 2.203125 2.941406 2.144531 3.234375 2.03125 C 3.523438 1.914062 3.769531 1.726562 3.96875 1.46875 C 4.164062 1.207031 4.34375 0.84375 4.5 0.375 L 0.234375 -10.703125 L 3.046875 -10.703125 L 5.703125 -3.265625 L 5.9375 -3.265625 L 8.53125 -10.703125 L 11.265625 -10.703125 L 6.96875 0.671875 C 6.625 1.585938 6.242188 2.320312 5.828125 2.875 C 5.421875 3.4375 4.9375 3.851562 4.375 4.125 C 3.820312 4.394531 3.148438 4.53125 2.359375 4.53125 Z M 2.359375 4.53125 "/></g></g></g><g fill="#000000" fill-opacity="1"><g transform="translate(140.165765, 24.96909)"><g><path d="M 2.875 -11.96875 C 2.394531 -11.96875 2 -12.113281 1.6875 -12.40625 C 1.382812 -12.707031 1.234375 -13.09375 1.234375 -13.5625 C 1.234375 -14.019531 1.382812 -14.394531 1.6875 -14.6875 C 2 -14.976562 2.394531 -15.125 2.875 -15.125 C 3.195312 -15.125 3.484375 -15.054688 3.734375 -14.921875 C 3.992188 -14.785156 4.191406 -14.597656 4.328125 -14.359375 C 4.460938 -14.128906 4.53125 -13.863281 4.53125 -13.5625 C 4.53125 -13.25 4.460938 -12.972656 4.328125 -12.734375 C 4.191406 -12.503906 3.992188 -12.316406 3.734375 -12.171875 C 3.484375 -12.035156 3.195312 -11.96875 2.875 -11.96875 Z M 1.546875 0 L 1.546875 -10.703125 L 4.234375 -10.703125 L 4.234375 0 Z M 1.546875 0 "/></g></g></g><g fill="#000000" fill-opacity="1"><g transform="translate(145.924721, 24.96909)"><g><path d="M 1.546875 0 L 1.546875 -10.703125 L 4.125 -10.703125 L 4.125 -9.125 L 4.328125 -9.078125 C 4.992188 -10.296875 6.070312 -10.90625 7.5625 -10.90625 C 8.800781 -10.90625 9.707031 -10.566406 10.28125 -9.890625 C 10.863281 -9.210938 11.15625 -8.234375 11.15625 -6.953125 L 11.15625 0 L 8.46875 0 L 8.46875 -6.625 C 8.46875 -7.332031 8.320312 -7.84375 8.03125 -8.15625 C 7.75 -8.46875 7.296875 -8.625 6.671875 -8.625 C 5.898438 -8.625 5.300781 -8.375 4.875 -7.875 C 4.445312 -7.382812 4.234375 -6.601562 4.234375 -5.53125 L 4.234375 0 Z M 1.546875 0 "/></g></g></g><g fill="#000000" fill-opacity="1"><g transform="translate(158.450934, 24.96909)"><g><path d="M 5.546875 4.53125 C 3.785156 4.53125 2.484375 4.269531 1.640625 3.75 C 0.796875 3.238281 0.375 2.519531 0.375 1.59375 C 0.375 1.03125 0.550781 0.570312 0.90625 0.21875 C 1.269531 -0.132812 1.789062 -0.375 2.46875 -0.5 L 2.46875 -0.703125 C 2.101562 -0.921875 1.835938 -1.164062 1.671875 -1.4375 C 1.515625 -1.707031 1.4375 -2.019531 1.4375 -2.375 C 1.4375 -3.238281 2 -3.816406 3.125 -4.109375 L 3.125 -4.3125 C 2.550781 -4.644531 2.117188 -5.054688 1.828125 -5.546875 C 1.535156 -6.035156 1.390625 -6.625 1.390625 -7.3125 C 1.390625 -8.019531 1.550781 -8.644531 1.875 -9.1875 C 2.195312 -9.726562 2.671875 -10.148438 3.296875 -10.453125 C 3.929688 -10.753906 4.691406 -10.90625 5.578125 -10.90625 C 6.460938 -10.90625 7.171875 -10.75 7.703125 -10.4375 C 8.035156 -10.914062 8.226562 -11.46875 8.28125 -12.09375 L 8.484375 -12.21875 L 10.421875 -11.75 C 10.359375 -11.238281 10.207031 -10.804688 9.96875 -10.453125 C 9.726562 -10.109375 9.359375 -9.800781 8.859375 -9.53125 L 8.859375 -9.3125 C 9.453125 -8.789062 9.75 -8.050781 9.75 -7.09375 C 9.75 -6.4375 9.582031 -5.84375 9.25 -5.3125 C 8.925781 -4.789062 8.445312 -4.378906 7.8125 -4.078125 C 7.1875 -3.773438 6.441406 -3.625 5.578125 -3.625 L 5.171875 -3.640625 C 4.910156 -3.648438 4.726562 -3.65625 4.625 -3.65625 C 4.375 -3.65625 4.179688 -3.585938 4.046875 -3.453125 C 3.910156 -3.328125 3.84375 -3.160156 3.84375 -2.953125 C 3.84375 -2.722656 3.929688 -2.546875 4.109375 -2.421875 C 4.296875 -2.296875 4.5625 -2.222656 4.90625 -2.203125 L 7.296875 -2.125 C 9.660156 -2.050781 10.84375 -1.03125 10.84375 0.9375 C 10.84375 1.625 10.664062 2.238281 10.3125 2.78125 C 9.96875 3.320312 9.398438 3.75 8.609375 4.0625 C 7.816406 4.375 6.796875 4.53125 5.546875 4.53125 Z M 5.578125 -5.515625 C 6.085938 -5.515625 6.488281 -5.664062 6.78125 -5.96875 C 7.070312 -6.269531 7.21875 -6.703125 7.21875 -7.265625 C 7.21875 -7.828125 7.070312 -8.257812 6.78125 -8.5625 C 6.488281 -8.863281 6.085938 -9.015625 5.578125 -9.015625 C 5.054688 -9.015625 4.648438 -8.863281 4.359375 -8.5625 C 4.078125 -8.257812 3.9375 -7.828125 3.9375 -7.265625 C 3.9375 -6.691406 4.078125 -6.253906 4.359375 -5.953125 C 4.648438 -5.660156 5.054688 -5.515625 5.578125 -5.515625 Z M 5.546875 2.59375 C 6.460938 2.59375 7.128906 2.460938 7.546875 2.203125 C 7.960938 1.941406 8.171875 1.601562 8.171875 1.1875 C 8.171875 0.851562 8.0625 0.609375 7.84375 0.453125 C 7.632812 0.296875 7.300781 0.207031 6.84375 0.1875 L 4.71875 0.09375 C 4.644531 0.09375 4.578125 0.0859375 4.515625 0.078125 C 4.460938 0.078125 4.40625 0.078125 4.34375 0.078125 C 3.894531 0.078125 3.550781 0.171875 3.3125 0.359375 C 3.070312 0.554688 2.953125 0.828125 2.953125 1.171875 C 2.953125 1.628906 3.164062 1.976562 3.59375 2.21875 C 4.03125 2.46875 4.679688 2.59375 5.546875 2.59375 Z M 5.546875 2.59375 "/></g></g></g><g fill="#000000" fill-opacity="1"><g transform="translate(169.571342, 24.96909)"><g/></g></g><g fill="#000000" fill-opacity="1"><g transform="translate(174.254129, 24.96909)"><g><path d="M 13.609375 0 L 10.65625 0 L 9.59375 -3.265625 L 4.15625 -3.265625 L 3.09375 0 L 0.21875 0 L 5.109375 -14.171875 L 8.703125 -14.171875 Z M 6.734375 -11.21875 L 4.921875 -5.625 L 8.8125 -5.625 L 6.984375 -11.21875 Z M 6.734375 -11.21875 "/></g></g></g><g fill="#000000" fill-opacity="1"><g transform="translate(188.069805, 24.96909)"><g><path d="M 1.546875 4.328125 L 1.546875 -10.703125 L 4.234375 -10.703125 L 4.234375 -9.296875 L 4.4375 -9.265625 C 4.75 -9.804688 5.171875 -10.210938 5.703125 -10.484375 C 6.234375 -10.765625 6.851562 -10.90625 7.5625 -10.90625 C 8.425781 -10.90625 9.175781 -10.695312 9.8125 -10.28125 C 10.457031 -9.875 10.957031 -9.253906 11.3125 -8.421875 C 11.675781 -7.597656 11.859375 -6.570312 11.859375 -5.34375 C 11.859375 -4.125 11.664062 -3.097656 11.28125 -2.265625 C 10.90625 -1.441406 10.378906 -0.820312 9.703125 -0.40625 C 9.035156 0 8.265625 0.203125 7.390625 0.203125 C 6.722656 0.203125 6.144531 0.09375 5.65625 -0.125 C 5.175781 -0.351562 4.769531 -0.703125 4.4375 -1.171875 L 4.234375 -1.140625 L 4.234375 4.328125 Z M 6.640625 -2.078125 C 7.441406 -2.078125 8.050781 -2.335938 8.46875 -2.859375 C 8.882812 -3.378906 9.09375 -4.207031 9.09375 -5.34375 C 9.09375 -6.476562 8.882812 -7.304688 8.46875 -7.828125 C 8.050781 -8.359375 7.441406 -8.625 6.640625 -8.625 C 5.890625 -8.625 5.296875 -8.347656 4.859375 -7.796875 C 4.421875 -7.253906 4.203125 -6.4375 4.203125 -5.34375 C 4.203125 -4.25 4.421875 -3.429688 4.859375 -2.890625 C 5.296875 -2.347656 5.890625 -2.078125 6.640625 -2.078125 Z M 6.640625 -2.078125 "/></g></g></g><g fill="#000000" fill-opacity="1"><g transform="translate(200.877179, 24.96909)"><g><path d="M 1.546875 4.328125 L 1.546875 -10.703125 L 4.234375 -10.703125 L 4.234375 -9.296875 L 4.4375 -9.265625 C 4.75 -9.804688 5.171875 -10.210938 5.703125 -10.484375 C 6.234375 -10.765625 6.851562 -10.90625 7.5625 -10.90625 C 8.425781 -10.90625 9.175781 -10.695312 9.8125 -10.28125 C 10.457031 -9.875 10.957031 -9.253906 11.3125 -8.421875 C 11.675781 -7.597656 11.859375 -6.570312 11.859375 -5.34375 C 11.859375 -4.125 11.664062 -3.097656 11.28125 -2.265625 C 10.90625 -1.441406 10.378906 -0.820312 9.703125 -0.40625 C 9.035156 0 8.265625 0.203125 7.390625 0.203125 C 6.722656 0.203125 6.144531 0.09375 5.65625 -0.125 C 5.175781 -0.351562 4.769531 -0.703125 4.4375 -1.171875 L 4.234375 -1.140625 L 4.234375 4.328125 Z M 6.640625 -2.078125 C 7.441406 -2.078125 8.050781 -2.335938 8.46875 -2.859375 C 8.882812 -3.378906 9.09375 -4.207031 9.09375 -5.34375 C 9.09375 -6.476562 8.882812 -7.304688 8.46875 -7.828125 C 8.050781 -8.359375 7.441406 -8.625 6.640625 -8.625 C 5.890625 -8.625 5.296875 -8.347656 4.859375 -7.796875 C 4.421875 -7.253906 4.203125 -6.4375 4.203125 -5.34375 C 4.203125 -4.25 4.421875 -3.429688 4.859375 -2.890625 C 5.296875 -2.347656 5.890625 -2.078125 6.640625 -2.078125 Z M 6.640625 -2.078125 "/></g></g></g></svg>