<svg width="2400" height="1600" xmlns="http://www.w3.org/2000/svg" xmlns:xlink="http://www.w3.org/1999/xlink" overflow="hidden"><defs><clipPath id="clip0"><rect x="0" y="0" width="2400" height="1600"/></clipPath></defs><g clip-path="url(#clip0)"><rect x="0" y="0" width="2400" height="1600" fill="#FFFFFF"/><path d="M539.5 144.5 1781.24 144.5" stroke="#4472C4" stroke-width="3" stroke-miterlimit="8" fill="none" fill-rule="evenodd"/><path d="M539.5 192.5 1781.24 192.5" stroke="#4472C4" stroke-width="3" stroke-miterlimit="8" fill="none" fill-rule="evenodd"/><path d="M541.5 237.5 1783.24 237.5" stroke="#4472C4" stroke-width="3" stroke-miterlimit="8" fill="none" fill-rule="evenodd"/><path d="M541.5 285.5 1783.24 285.5" stroke="#4472C4" stroke-width="3" stroke-miterlimit="8" fill="none" fill-rule="evenodd"/><path d="M541.5 332.5 1783.24 332.5" stroke="#4472C4" stroke-width="3" stroke-miterlimit="8" fill="none" fill-rule="evenodd"/><path d="M541.5 380.5 1783.24 380.5" stroke="#4472C4" stroke-width="3" stroke-miterlimit="8" fill="none" fill-rule="evenodd"/><path d="M541.5 425.5 1783.24 425.5" stroke="#4472C4" stroke-width="3" stroke-miterlimit="8" fill="none" fill-rule="evenodd"/><path d="M541.5 473.5 1783.24 473.5" stroke="#4472C4" stroke-width="3" stroke-miterlimit="8" fill="none" fill-rule="evenodd"/><path d="M541.5 520.5 1783.24 520.5" stroke="#4472C4" stroke-width="3" stroke-miterlimit="8" fill="none" fill-rule="evenodd"/><path d="M541.5 566.5 1783.24 566.5" stroke="#4472C4" stroke-width="3" stroke-miterlimit="8" fill="none" fill-rule="evenodd"/><path d="M541.5 614.5 1783.24 614.5" stroke="#4472C4" stroke-width="3" stroke-miterlimit="8" fill="none" fill-rule="evenodd"/><path d="M541.5 659.5 1783.24 659.5" stroke="#4472C4" stroke-width="3" stroke-miterlimit="8" fill="none" fill-rule="evenodd"/><path d="M541.5 704.5 1783.24 704.5" stroke="#4472C4" stroke-width="3" stroke-miterlimit="8" fill="none" fill-rule="evenodd"/><path d="M541.5 749.5 1783.24 749.5" stroke="#4472C4" stroke-width="3" stroke-miterlimit="8" fill="none" fill-rule="evenodd"/><path d="M541.5 795.5 1783.24 795.5" stroke="#4472C4" stroke-width="3" stroke-miterlimit="8" fill="none" fill-rule="evenodd"/><path d="M541.5 840.5 1783.24 840.5" stroke="#4472C4" stroke-width="3" stroke-miterlimit="8" fill="none" fill-rule="evenodd"/><path d="M541.5 885.5 1783.24 885.5" stroke="#4472C4" stroke-width="3" stroke-miterlimit="8" fill="none" fill-rule="evenodd"/><path d="M541.5 930.5 1783.24 930.5" stroke="#4472C4" stroke-width="3" stroke-miterlimit="8" fill="none" fill-rule="evenodd"/><path d="M541.5 977.5 1783.24 977.5" stroke="#4472C4" stroke-width="3" stroke-miterlimit="8" fill="none" fill-rule="evenodd"/><path d="M541.5 1022.5 1783.24 1022.5" stroke="#4472C4" stroke-width="3" stroke-miterlimit="8" fill="none" fill-rule="evenodd"/><path d="M541.5 1068.5 1783.24 1068.5" stroke="#4472C4" stroke-width="3" stroke-miterlimit="8" fill="none" fill-rule="evenodd"/><path d="M541.5 1113.5 1783.24 1113.5" stroke="#4472C4" stroke-width="3" stroke-miterlimit="8" fill="none" fill-rule="evenodd"/><path d="M541.5 1159.5 1783.24 1159.5" stroke="#4472C4" stroke-width="3" stroke-miterlimit="8" fill="none" fill-rule="evenodd"/><path d="M541.5 1204.5 1783.24 1204.5" stroke="#4472C4" stroke-width="3" stroke-miterlimit="8" fill="none" fill-rule="evenodd"/><path d="M541.5 1250.5 1783.24 1250.5" stroke="#4472C4" stroke-width="3" stroke-miterlimit="8" fill="none" fill-rule="evenodd"/><path d="M541.5 1295.5 1783.24 1295.5" stroke="#4472C4" stroke-width="3" stroke-miterlimit="8" fill="none" fill-rule="evenodd"/><path d="M541.5 1340.5 1783.24 1340.5" stroke="#4472C4" stroke-width="3" stroke-miterlimit="8" fill="none" fill-rule="evenodd"/><path d="M541.5 1386.5 1783.24 1386.5" stroke="#4472C4" stroke-width="3" stroke-miterlimit="8" fill="none" fill-rule="evenodd"/><path d="M541.5 1430.5 1783.24 1430.5" stroke="#4472C4" stroke-width="3" stroke-miterlimit="8" fill="none" fill-rule="evenodd"/><path d="M541.5 1475.5 1783.24 1475.5" stroke="#4472C4" stroke-width="3" stroke-miterlimit="8" fill="none" fill-rule="evenodd"/><path d="M541.5 1522.5 1783.24 1522.5" stroke="#4472C4" stroke-width="3" stroke-miterlimit="8" fill="none" fill-rule="evenodd"/><path d="M541.5 1568.5 1783.24 1568.5" stroke="#4472C4" stroke-width="3" stroke-miterlimit="8" fill="none" fill-rule="evenodd"/><path d="M676.5 0.500053 676.5 1600.5" stroke="#FF0000" stroke-width="3" stroke-miterlimit="8" fill="none" fill-rule="evenodd"/><path d="M0 0 1.97816 1455.67" stroke="#000000" stroke-width="4" stroke-miterlimit="8" fill="none" fill-rule="evenodd" transform="matrix(-1 0 0 1 1160.98 144)"/><text font-family="Calibri,Calibri_MSFontService,sans-serif" font-weight="700" font-size="48" transform="translate(792.832 54)">Finding Slope Using Slope<tspan font-size="48" x="510.167" y="0">-</tspan><tspan font-size="48" x="524.833" y="0">Intercept Formula</tspan><tspan font-size="48" x="325.813" y="58">(y = mx + b) </tspan><tspan font-weight="400" font-size="37" x="391.694" y="130">Find the slope for the line:</tspan><tspan font-weight="400" font-size="37" x="519.194" y="175">14x + 3y = 15</tspan></text></g></svg>