<svg width="2400" height="1600" xmlns="http://www.w3.org/2000/svg" xmlns:xlink="http://www.w3.org/1999/xlink" overflow="hidden"><defs><clipPath id="clip0"><rect x="0" y="0" width="2400" height="1600"/></clipPath></defs><g clip-path="url(#clip0)"><rect x="0" y="0" width="2400" height="1600" fill="#FFFFFF"/><path d="M919.5 800.5C919.5 692.805 1045.31 605.5 1200.5 605.5 1355.69 605.5 1481.5 692.805 1481.5 800.5 1481.5 908.196 1355.69 995.5 1200.5 995.5 1045.31 995.5 919.5 908.196 919.5 800.5Z" stroke="#000000" stroke-width="1.33333" stroke-miterlimit="8" fill="#FFFFFF" fill-rule="evenodd"/><text font-family="Calibri,Calibri_MSFontService,sans-serif" font-weight="700" font-size="62" transform="translate(1040.85 821)">Constitution</text><path d="M534.5 442C534.5 373.241 609.268 317.5 701.5 317.5 793.732 317.5 868.5 373.241 868.5 442 868.5 510.759 793.732 566.5 701.5 566.5 609.268 566.5 534.5 510.759 534.5 442Z" stroke="#000000" stroke-width="1.33333" stroke-miterlimit="8" fill="#FFFFFF" fill-rule="evenodd"/><text font-family="Arial,Arial_MSFontService,sans-serif" font-weight="700" font-size="48" transform="translate(613.267 460)">Articles</text><path d="M999.078 664.709 829.365 541.25 832.895 536.398 1002.61 659.857ZM828.262 547.867 819 530 838.85 533.311Z"/><path d="M852.884 633.247 954.189 506.768 984.453 531.008 883.148 657.487Z" fill="#FFFFFF" fill-rule="evenodd"/><text font-family="Calibri,Calibri_MSFontService,sans-serif" font-weight="700" font-size="24" transform="matrix(0.625154 -0.780502 0.780502 0.625154 879.803 643)">Divided into</text><path d="M1532.5 442C1532.5 373.241 1600.33 317.5 1684 317.5 1767.67 317.5 1835.5 373.241 1835.5 442 1835.5 510.759 1767.67 566.5 1684 566.5 1600.33 566.5 1532.5 510.759 1532.5 442Z" stroke="#000000" stroke-width="1.33333" stroke-miterlimit="8" fill="#FFFFFF" fill-rule="evenodd"/><text font-family="Arial,Arial_MSFontService,sans-serif" font-weight="700" font-size="43" transform="translate(1586.56 431)">Founding</text><text font-family="Arial,Arial_MSFontService,sans-serif" font-weight="700" font-size="43" transform="translate(1606.56 483)">Fathers</text><path d="M1.7935-2.40486 167.143 120.91 163.556 125.72-1.7935 2.40486ZM168.326 114.307 177.374 132.283 157.565 128.736Z" transform="matrix(1 0 0 -1 1399 662.283)"/><path d="M1452 530.451 1557.11 653.792 1527.59 678.941 1422.49 555.6Z" fill="#FFFFFF" fill-rule="evenodd"/><text font-family="Calibri,Calibri_MSFontService,sans-serif" font-weight="700" font-size="24" transform="matrix(0.648595 0.761133 -0.761133 0.648595 1437.83 555)">Created by</text><path d="M550.5 1034.5C550.5 965.464 618.329 909.5 702 909.5 785.671 909.5 853.5 965.464 853.5 1034.5 853.5 1103.54 785.671 1159.5 702 1159.5 618.329 1159.5 550.5 1103.54 550.5 1034.5Z" stroke="#000000" stroke-width="1.33333" stroke-miterlimit="8" fill="#FFFFFF" fill-rule="evenodd"/><text font-family="Arial,Arial_MSFontService,sans-serif" font-weight="700" font-size="32" transform="translate(608.824 1026)">Branches of</text><text font-family="Arial,Arial_MSFontService,sans-serif" font-weight="700" font-size="32" transform="translate(609.738 1065)">government</text><path d="M1.6282-2.51972 137.214 85.0938 133.958 90.1332-1.6282 2.51972ZM137.951 78.4261 148.185 95.7544 128.182 93.5444Z" transform="matrix(-1 0 0 1 1001.18 938)"/><path d="M913.028 919.622 1013.17 1047.02 982.687 1070.99 882.544 943.584Z" fill="#FFFFFF" fill-rule="evenodd"/><text font-family="Calibri,Calibri_MSFontService,sans-serif" font-weight="700" font-size="24" transform="matrix(0.617982 0.786192 -0.786192 0.617982 897.891 944)">Describes</text><path d="M1557.5 1077C1557.5 1000.51 1632.04 938.5 1724 938.5 1815.96 938.5 1890.5 1000.51 1890.5 1077 1890.5 1153.49 1815.96 1215.5 1724 1215.5 1632.04 1215.5 1557.5 1153.49 1557.5 1077Z" stroke="#000000" stroke-width="1.33333" stroke-miterlimit="8" fill="#FFFFFF" fill-rule="evenodd"/><text font-family="Arial,Arial_MSFontService,sans-serif" font-weight="700" font-size="32" transform="translate(1622.09 1088)">Amendments</text><path d="M1400.96 937.726 1547.76 1064.06 1543.85 1068.61 1397.04 942.274ZM1549.4 1057.56 1557.18 1076.12 1537.66 1071.2Z"/><path d="M1398.93 1026.89 1517.13 916.035 1543.66 944.318 1425.46 1055.17Z" fill="#FFFFFF" fill-rule="evenodd"/><text font-family="Calibri,Calibri_MSFontService,sans-serif" font-weight="700" font-size="24" transform="matrix(0.729415 -0.684072 0.684072 0.729415 1424.27 1040)">Changes by</text></g></svg>