<svg width="2400" height="1600" xmlns="http://www.w3.org/2000/svg" xmlns:xlink="http://www.w3.org/1999/xlink" overflow="hidden"><defs><clipPath id="clip0"><rect x="0" y="0" width="2400" height="1600"/></clipPath></defs><g clip-path="url(#clip0)"><rect x="0" y="0" width="2400" height="1600" fill="#FFFFFF"/><path d="M919.5 800.5C919.5 692.805 1045.31 605.5 1200.5 605.5 1355.69 605.5 1481.5 692.805 1481.5 800.5 1481.5 908.196 1355.69 995.5 1200.5 995.5 1045.31 995.5 919.5 908.196 919.5 800.5Z" stroke="#000000" stroke-width="1.33333" stroke-miterlimit="8" fill="#FFFFFF" fill-rule="evenodd"/><text font-family="Calibri,Calibri_MSFontService,sans-serif" font-weight="700" font-size="62" transform="translate(1040.85 821)">Constitution</text><path d="M536.5 442C536.5 373.241 610.821 317.5 702.5 317.5 794.179 317.5 868.5 373.241 868.5 442 868.5 510.759 794.179 566.5 702.5 566.5 610.821 566.5 536.5 510.759 536.5 442Z" stroke="#000000" stroke-width="1.33333" stroke-miterlimit="8" fill="#FFFFFF" fill-rule="evenodd"/><text font-family="Arial,Arial_MSFontService,sans-serif" font-weight="700" font-size="48" transform="translate(614.153 460)">Articles</text><path d="M998.817 664.707 829.358 541.257 832.891 536.408 1002.35 659.858ZM828.25 547.873 819 530 838.848 533.324Z"/><path d="M852.884 633.247 954.189 506.768 984.453 531.008 883.148 657.487Z" fill="#FFFFFF" fill-rule="evenodd"/><text font-family="Calibri,Calibri_MSFontService,sans-serif" font-weight="700" font-size="24" transform="matrix(0.625154 -0.780502 0.780502 0.625154 879.803 643)">Divided into</text><path d="M1532.5 442C1532.5 373.241 1600.33 317.5 1684 317.5 1767.67 317.5 1835.5 373.241 1835.5 442 1835.5 510.759 1767.67 566.5 1684 566.5 1600.33 566.5 1532.5 510.759 1532.5 442Z" stroke="#000000" stroke-width="1.33333" stroke-miterlimit="8" fill="#FFFFFF" fill-rule="evenodd"/><text font-family="Arial,Arial_MSFontService,sans-serif" font-weight="700" font-size="43" transform="translate(1586.56 431)">Founding</text><text font-family="Arial,Arial_MSFontService,sans-serif" font-weight="700" font-size="43" transform="translate(1606.56 483)">Fathers</text><path d="M1.7935-2.40486 167.143 120.91 163.556 125.72-1.7935 2.40486ZM168.326 114.307 177.374 132.283 157.565 128.736Z" transform="matrix(1 0 0 -1 1399 662.283)"/><path d="M1452 530.451 1557.11 653.792 1527.59 678.941 1422.49 555.6Z" fill="#FFFFFF" fill-rule="evenodd"/><text font-family="Calibri,Calibri_MSFontService,sans-serif" font-weight="700" font-size="24" transform="matrix(0.648595 0.761133 -0.761133 0.648595 1437.83 555)">Created by</text><path d="M550.5 1034.5C550.5 965.464 618.329 909.5 702 909.5 785.671 909.5 853.5 965.464 853.5 1034.5 853.5 1103.54 785.671 1159.5 702 1159.5 618.329 1159.5 550.5 1103.54 550.5 1034.5Z" stroke="#000000" stroke-width="1.33333" stroke-miterlimit="8" fill="#FFFFFF" fill-rule="evenodd"/><text font-family="Arial,Arial_MSFontService,sans-serif" font-weight="700" font-size="32" transform="translate(608.824 1026)">Branches of</text><text font-family="Arial,Arial_MSFontService,sans-serif" font-weight="700" font-size="32" transform="translate(609.738 1065)">government</text><path d="M1.6282-2.51972 137.214 85.0938 133.958 90.1332-1.6282 2.51972ZM137.951 78.4261 148.185 95.7544 128.182 93.5444Z" transform="matrix(-1 0 0 1 1001.18 938)"/><path d="M913.028 919.622 1013.17 1047.02 982.687 1070.99 882.544 943.584Z" fill="#FFFFFF" fill-rule="evenodd"/><text font-family="Calibri,Calibri_MSFontService,sans-serif" font-weight="700" font-size="24" transform="matrix(0.617982 0.786192 -0.786192 0.617982 897.891 944)">Describes</text><path d="M1557.5 1069C1557.5 996.927 1631.15 938.5 1722 938.5 1812.85 938.5 1886.5 996.927 1886.5 1069 1886.5 1141.07 1812.85 1199.5 1722 1199.5 1631.15 1199.5 1557.5 1141.07 1557.5 1069Z" stroke="#000000" stroke-width="1.33333" stroke-miterlimit="8" fill="#FFFFFF" fill-rule="evenodd"/><text font-family="Arial,Arial_MSFontService,sans-serif" font-weight="700" font-size="32" transform="translate(1619.94 1080)">Amendments</text><path d="M1400.89 937.67 1547.41 1056.47 1543.64 1061.13 1397.11 942.33ZM1548.86 1049.92 1557.18 1068.24 1537.53 1063.9Z"/><path d="M1398.93 1026.89 1517.13 916.035 1543.66 944.318 1425.46 1055.17Z" fill="#FFFFFF" fill-rule="evenodd"/><text font-family="Calibri,Calibri_MSFontService,sans-serif" font-weight="700" font-size="24" transform="matrix(0.729415 -0.684072 0.684072 0.729415 1424.27 1040)">Changes by</text><path d="M204.5 668C204.5 611.943 264.27 566.5 338 566.5 411.73 566.5 471.5 611.943 471.5 668 471.5 724.057 411.73 769.5 338 769.5 264.27 769.5 204.5 724.057 204.5 668Z" stroke="#000000" stroke-width="1.33333" stroke-miterlimit="8" fill="#FFFFFF" fill-rule="evenodd"/><text font-family="Calibri,Calibri_MSFontService,sans-serif" font-weight="700" font-size="24" transform="translate(256.495 661)">Article I: Powers</text><text font-family="Calibri,Calibri_MSFontService,sans-serif" font-weight="700" font-size="24" transform="translate(279.835 690)">of Congress</text><path d="M1.19058-2.75364 140.507 57.4822 138.126 62.9895-1.19058 2.75364ZM140.134 50.7844 153.084 66.1888 132.991 67.3062Z" transform="matrix(-1 0 0 1 585.084 530)"/><path d="M166.5 255C166.5 198.943 226.27 153.5 300 153.5 373.73 153.5 433.5 198.943 433.5 255 433.5 311.057 373.73 356.5 300 356.5 226.27 356.5 166.5 311.057 166.5 255Z" stroke="#000000" stroke-width="1.33333" stroke-miterlimit="8" fill="#FFFFFF" fill-rule="evenodd"/><text font-family="Calibri,Calibri_MSFontService,sans-serif" font-weight="700" font-size="24" transform="translate(216.044 248)">Article 2: Powers</text><text font-family="Calibri,Calibri_MSFontService,sans-serif" font-weight="700" font-size="24" transform="translate(239.664 277)">of President</text><path d="M584.199 355.925 408.432 331.071 409.272 325.13 585.039 349.984ZM410.563 337.432 394 326 413.083 319.609Z"/><path d="M522.5 121C522.5 64.9431 582.27 19.5001 656 19.5001 729.73 19.5001 789.5 64.9431 789.5 121 789.5 177.057 729.73 222.5 656 222.5 582.27 222.5 522.5 177.057 522.5 121Z" stroke="#000000" stroke-width="1.33333" stroke-miterlimit="8" fill="#FFFFFF" fill-rule="evenodd"/><text font-family="Calibri,Calibri_MSFontService,sans-serif" font-weight="700" font-size="24" transform="translate(571.626 99)">Article 3: Powers</text><text font-family="Calibri,Calibri_MSFontService,sans-serif" font-weight="700" font-size="24" transform="translate(597.973 128)">of Supreme</text><text font-family="Calibri,Calibri_MSFontService,sans-serif" font-weight="700" font-size="24" transform="translate(627.753 157)">Court</text><path d="M699.125 318.353 658.938 236.781 664.32 234.13 704.508 315.701ZM654.882 242.124 655 222 671.028 234.169Z"/><rect x="629" y="257" width="132" height="39" fill="#FFFFFF"/><text font-family="Calibri,Calibri_MSFontService,sans-serif" font-weight="700" font-size="24" transform="translate(638.849 284)">Example</text><path d="M445.534 379.603 514.745 267.708 547.721 288.105 478.511 400Z" fill="#FFFFFF" fill-rule="evenodd"/><text font-family="Calibri,Calibri_MSFontService,sans-serif" font-weight="700" font-size="24" transform="matrix(0.526038 -0.850461 0.850461 0.526038 473.376 386)">Example</text><path d="M491.835 504.168 574.619 606.43 544.481 630.827 461.697 528.566Z" fill="#FFFFFF" fill-rule="evenodd"/><text font-family="Calibri,Calibri_MSFontService,sans-serif" font-weight="700" font-size="24" transform="matrix(0.629202 0.777242 -0.777242 0.629202 477.045 528)">Example</text><path d="M192.5 941C192.5 884.943 252.27 839.5 326 839.5 399.73 839.5 459.5 884.943 459.5 941 459.5 997.057 399.73 1042.5 326 1042.5 252.27 1042.5 192.5 997.057 192.5 941Z" stroke="#000000" stroke-width="1.33333" stroke-miterlimit="8" fill="#FFFFFF" fill-rule="evenodd"/><text font-family="Calibri,Calibri_MSFontService,sans-serif" font-weight="700" font-size="24" transform="translate(274.08 934)">Legislative</text><text font-family="Calibri,Calibri_MSFontService,sans-serif" font-weight="700" font-size="24" transform="translate(291.373 963)">Branch</text><path d="M593.611 948.216 473.873 943.578 474.105 937.583 593.843 942.22ZM476.638 949.69 459 940 477.335 931.703Z"/><path d="M217.5 1252.5C217.5 1196.72 277.27 1151.5 351 1151.5 424.73 1151.5 484.5 1196.72 484.5 1252.5 484.5 1308.28 424.73 1353.5 351 1353.5 277.27 1353.5 217.5 1308.28 217.5 1252.5Z" stroke="#000000" stroke-width="1.33333" stroke-miterlimit="8" fill="#FFFFFF" fill-rule="evenodd"/><text font-family="Calibri,Calibri_MSFontService,sans-serif" font-weight="700" font-size="24" transform="translate(266.071 1260)">Executive Branch</text><path d="M1.09067-2.79472 136.414 50.0168 134.233 55.6063-1.09067 2.79472ZM135.801 43.3367 149.297 58.2649 129.257 60.105Z" transform="matrix(-1 0 0 1 594.297 1122)"/><path d="M655.5 1346.5C655.5 1290.72 715.27 1245.5 789 1245.5 862.73 1245.5 922.5 1290.72 922.5 1346.5 922.5 1402.28 862.73 1447.5 789 1447.5 715.27 1447.5 655.5 1402.28 655.5 1346.5Z" stroke="#000000" stroke-width="1.33333" stroke-miterlimit="8" fill="#FFFFFF" fill-rule="evenodd"/><text font-family="Calibri,Calibri_MSFontService,sans-serif" font-weight="700" font-size="24" transform="translate(715.168 1354)">Judicial Branch</text><path d="M703.633 1157.56 747.447 1237.74 742.182 1240.62 698.367 1160.44ZM751.274 1232.23 752.007 1252.34 735.478 1240.86Z"/><path d="M490.876 963.011 562.719 852.788 595.203 873.961 523.36 984.184Z" fill="#FFFFFF" fill-rule="evenodd"/><text font-family="Calibri,Calibri_MSFontService,sans-serif" font-weight="700" font-size="24" transform="matrix(0.546041 -0.837758 0.837758 0.546041 518.57 970)">Part</text><path d="M515.9 1107.96 599.417 1209.62 569.456 1234.23 485.939 1132.57Z" fill="#FFFFFF" fill-rule="evenodd"/><text font-family="Calibri,Calibri_MSFontService,sans-serif" font-weight="700" font-size="24" transform="matrix(0.634775 0.772697 -0.772697 0.634775 501.286 1132)">Part</text><path d="M689.194 1197.94 812.347 1151.64 825.993 1187.93 702.84 1234.23Z" fill="#FFFFFF" fill-rule="evenodd"/><text font-family="Calibri,Calibri_MSFontService,sans-serif" font-weight="700" font-size="24" transform="matrix(0.936032 -0.351915 0.351915 0.936032 707.611 1220)">Part</text><path d="M1342.5 1317C1342.5 1260.94 1402.27 1215.5 1476 1215.5 1549.73 1215.5 1609.5 1260.94 1609.5 1317 1609.5 1373.06 1549.73 1418.5 1476 1418.5 1402.27 1418.5 1342.5 1373.06 1342.5 1317Z" stroke="#000000" stroke-width="1.33333" stroke-miterlimit="8" fill="#FFFFFF" fill-rule="evenodd"/><text font-family="Calibri,Calibri_MSFontService,sans-serif" font-weight="700" font-size="24" transform="translate(1420.66 1281)">2/3 vote of</text><text font-family="Calibri,Calibri_MSFontService,sans-serif" font-weight="700" font-size="24" transform="translate(1423.07 1310)">House and</text><text font-family="Calibri,Calibri_MSFontService,sans-serif" font-weight="700" font-size="24" transform="translate(1395.59 1339)">Senate and vote</text><text font-family="Calibri,Calibri_MSFontService,sans-serif" font-weight="700" font-size="24" transform="translate(1409.58 1368)">among states</text><path d="M2.82617-1.00637 28.597 71.3649 22.9447 73.3777-2.82617 1.00637ZM33.243 66.526 30.8027 86.5022 16.286 72.5643Z" transform="matrix(-1 0 0 1 1600.8 1159)"/><path d="M1897.5 1300C1897.5 1243.94 1957.49 1198.5 2031.5 1198.5 2105.51 1198.5 2165.5 1243.94 2165.5 1300 2165.5 1356.06 2105.51 1401.5 2031.5 1401.5 1957.49 1401.5 1897.5 1356.06 1897.5 1300Z" stroke="#000000" stroke-width="1.33333" stroke-miterlimit="8" fill="#FFFFFF" fill-rule="evenodd"/><text font-family="Calibri,Calibri_MSFontService,sans-serif" font-weight="700" font-size="24" transform="translate(1950.43 1278)">1</text><text font-family="Calibri,Calibri_MSFontService,sans-serif" font-weight="700" font-size="16" transform="translate(1962.6 1271)">st</text><text font-family="Calibri,Calibri_MSFontService,sans-serif" font-weight="700" font-size="24" transform="translate(1979.75 1278)">–</text><text font-family="Calibri,Calibri_MSFontService,sans-serif" font-weight="700" font-size="24" transform="translate(1997.25 1278)">Freedom of</text><text font-family="Calibri,Calibri_MSFontService,sans-serif" font-weight="700" font-size="24" transform="translate(1974.96 1307)">speech and</text><text font-family="Calibri,Calibri_MSFontService,sans-serif" font-weight="700" font-size="24" transform="translate(1993.68 1336)">religion</text><path d="M1839.68 1158.51 1926.34 1217.04 1922.98 1222.02 1836.32 1163.49ZM1927.21 1210.39 1937.09 1227.92 1917.14 1225.31Z"/><path d="M1546.87 1153.65 1696.38 1216.14 1681.43 1251.91 1531.91 1189.43Z" fill="#FFFFFF" fill-rule="evenodd"/><text font-family="Calibri,Calibri_MSFontService,sans-serif" font-weight="700" font-size="24" transform="matrix(0.922666 0.385599 -0.385599 0.922666 1545.39 1182)">Process</text><path d="M1837.5 1208.95 1905.66 1125.8 1935.65 1150.38 1867.49 1233.53Z" fill="#FFFFFF" fill-rule="evenodd"/><text font-family="Calibri,Calibri_MSFontService,sans-serif" font-weight="700" font-size="24" transform="matrix(0.633965 -0.773361 0.773361 0.633965 1864.32 1219)">Example</text><path d="M1897.5 858C1897.5 801.943 1957.49 756.5 2031.5 756.5 2105.51 756.5 2165.5 801.943 2165.5 858 2165.5 914.057 2105.51 959.5 2031.5 959.5 1957.49 959.5 1897.5 914.057 1897.5 858Z" stroke="#000000" stroke-width="1.33333" stroke-miterlimit="8" fill="#FFFFFF" fill-rule="evenodd"/><text font-family="Calibri,Calibri_MSFontService,sans-serif" font-weight="700" font-size="24" transform="translate(1950.1 836)">A formal change</text><text font-family="Calibri,Calibri_MSFontService,sans-serif" font-weight="700" font-size="24" transform="translate(2001.24 865)">to the</text><text font-family="Calibri,Calibri_MSFontService,sans-serif" font-weight="700" font-size="24" transform="translate(1969.68 894)">Constitution</text><path d="M2.02747-2.21119 64.2726 54.8622 60.2177 59.2846-2.02747 2.21119ZM66.1164 48.4123 73.3011 67.2107 53.9515 61.6795Z" transform="matrix(1 0 0 -1 1838 976.211)"/><path d="M1846.23 889.249 1949.78 979.007 1924.38 1008.31 1820.84 918.548Z" fill="#FFFFFF" fill-rule="evenodd"/><text font-family="Calibri,Calibri_MSFontService,sans-serif" font-weight="700" font-size="24" transform="matrix(0.755618 0.655012 -0.655012 0.755618 1835.93 916)">Definition</text><path d="M1570.5 119.5C1570.5 63.7193 1630.49 18.5001 1704.5 18.5001 1778.51 18.5001 1838.5 63.7193 1838.5 119.5 1838.5 175.281 1778.51 220.5 1704.5 220.5 1630.49 220.5 1570.5 175.281 1570.5 119.5Z" stroke="#000000" stroke-width="1.33333" stroke-miterlimit="8" fill="#FFFFFF" fill-rule="evenodd"/><text font-family="Calibri,Calibri_MSFontService,sans-serif" font-weight="700" font-size="24" transform="translate(1627.43 127)">James Madison</text><path d="M2.90174-0.761506 25.4946 85.3293 19.6911 86.8524-2.90174 0.761506ZM30.5366 80.9046 26.4004 100.6 13.1262 85.4736Z" transform="matrix(1 0 0 -1 1678 320.6)"/><rect x="1631" y="257" width="131" height="39" fill="#FFFFFF"/><text font-family="Calibri,Calibri_MSFontService,sans-serif" font-weight="700" font-size="24" transform="translate(1640.2 284)">Author</text><path d="M1897.5 258C1897.5 201.943 1957.49 156.5 2031.5 156.5 2105.51 156.5 2165.5 201.943 2165.5 258 2165.5 314.057 2105.51 359.5 2031.5 359.5 1957.49 359.5 1897.5 314.057 1897.5 258Z" stroke="#000000" stroke-width="1.33333" stroke-miterlimit="8" fill="#FFFFFF" fill-rule="evenodd"/><text font-family="Calibri,Calibri_MSFontService,sans-serif" font-weight="700" font-size="24" transform="translate(1980.79 236)">Articles of</text><text font-family="Calibri,Calibri_MSFontService,sans-serif" font-weight="700" font-size="24" transform="translate(1960.19 265)">Confederation</text><text font-family="Calibri,Calibri_MSFontService,sans-serif" font-weight="700" font-size="24" transform="translate(2003.24 294)">failed</text><path d="M0.494526-2.95896 131.651 18.9611 130.662 24.879-0.494526 2.95896ZM129.681 12.5486 145.951 24.3927 126.714 30.3024Z" transform="matrix(1 0 0 -1 1791 353.393)"/><path d="M1839.18 294.43 1917 400.519 1885.73 423.453 1807.92 317.363Z" fill="#FFFFFF" fill-rule="evenodd"/><text font-family="Calibri,Calibri_MSFontService,sans-serif" font-weight="700" font-size="24" transform="matrix(0.591457 0.806337 -0.806337 0.591457 1823.25 318)">Reason</text></g></svg>