<svg width="2400" height="1600" xmlns="http://www.w3.org/2000/svg" xmlns:xlink="http://www.w3.org/1999/xlink" overflow="hidden"><defs><clipPath id="clip0"><rect x="0" y="0" width="2400" height="1600"/></clipPath></defs><g clip-path="url(#clip0)"><rect x="0" y="0" width="2400" height="1600" fill="#FFFFFF"/><path d="M919.5 800.5C919.5 692.805 1045.31 605.5 1200.5 605.5 1355.69 605.5 1481.5 692.805 1481.5 800.5 1481.5 908.196 1355.69 995.5 1200.5 995.5 1045.31 995.5 919.5 908.196 919.5 800.5Z" stroke="#000000" stroke-width="1.33333" stroke-miterlimit="8" fill="#FFFFFF" fill-rule="evenodd"/><text font-family="Calibri,Calibri_MSFontService,sans-serif" font-weight="700" font-size="62" transform="translate(1040.85 821)">Constitution</text><path d="M534.5 442C534.5 373.241 609.268 317.5 701.5 317.5 793.732 317.5 868.5 373.241 868.5 442 868.5 510.759 793.732 566.5 701.5 566.5 609.268 566.5 534.5 510.759 534.5 442Z" stroke="#000000" stroke-width="1.33333" stroke-miterlimit="8" fill="#FFFFFF" fill-rule="evenodd"/><text font-family="Arial,Arial_MSFontService,sans-serif" font-weight="700" font-size="48" transform="translate(613.267 460)">Articles</text><path d="M1532.5 442C1532.5 373.241 1600.33 317.5 1684 317.5 1767.67 317.5 1835.5 373.241 1835.5 442 1835.5 510.759 1767.67 566.5 1684 566.5 1600.33 566.5 1532.5 510.759 1532.5 442Z" stroke="#000000" stroke-width="1.33333" stroke-miterlimit="8" fill="#FFFFFF" fill-rule="evenodd"/><text font-family="Arial,Arial_MSFontService,sans-serif" font-weight="700" font-size="43" transform="translate(1586.56 431)">Founding</text><text font-family="Arial,Arial_MSFontService,sans-serif" font-weight="700" font-size="43" transform="translate(1606.56 483)">Fathers</text><path d="M550.5 1034.5C550.5 965.464 618.329 909.5 702 909.5 785.671 909.5 853.5 965.464 853.5 1034.5 853.5 1103.54 785.671 1159.5 702 1159.5 618.329 1159.5 550.5 1103.54 550.5 1034.5Z" stroke="#000000" stroke-width="1.33333" stroke-miterlimit="8" fill="#FFFFFF" fill-rule="evenodd"/><text font-family="Arial,Arial_MSFontService,sans-serif" font-weight="700" font-size="32" transform="translate(608.824 1026)">Branches of</text><text font-family="Arial,Arial_MSFontService,sans-serif" font-weight="700" font-size="32" transform="translate(609.738 1065)">government</text><path d="M1557.5 1077C1557.5 1000.51 1632.04 938.5 1724 938.5 1815.96 938.5 1890.5 1000.51 1890.5 1077 1890.5 1153.49 1815.96 1215.5 1724 1215.5 1632.04 1215.5 1557.5 1153.49 1557.5 1077Z" stroke="#000000" stroke-width="1.33333" stroke-miterlimit="8" fill="#FFFFFF" fill-rule="evenodd"/><text font-family="Arial,Arial_MSFontService,sans-serif" font-weight="700" font-size="32" transform="translate(1622.09 1088)">Amendments</text></g></svg>